<svg width="54" height="54" viewBox="0 0 54 54" fill="none" xmlns="http://www.w3.org/2000/svg">
<g filter="url(#filter0_d_1_63)">
<rect x="6" y="2" width="42" height="42" stroke="black" stroke-width="4" shape-rendering="crispEdges"/>
<path d="M10.375 23C10.375 15.1635 10.375 11.2435 12.8093 8.80925C15.2435 6.375 19.1617 6.375 27 6.375C34.8365 6.375 38.7565 6.375 41.1907 8.80925C43.625 11.2435 43.625 15.1617 43.625 23C43.625 30.8365 43.625 34.7565 41.1907 37.1907C38.7565 39.625 34.8383 39.625 27 39.625C19.1635 39.625 15.2435 39.625 12.8093 37.1907C10.375 34.7565 10.375 30.8383 10.375 23Z" stroke="#97AFE3" stroke-width="4" stroke-linecap="round" stroke-linejoin="round"/>
<path d="M34 23H20M34 23C34 21.775 30.5105 19.486 29.625 18.625M34 23C34 24.225 30.5105 26.514 29.625 27.375" stroke="#97AFE3" stroke-width="4" stroke-linecap="round" stroke-linejoin="round"/>
</g>
<defs>
<filter id="filter0_d_1_63" x="0" y="0" width="54" height="54" filterUnits="userSpaceOnUse" color-interpolation-filters="sRGB">
<feFlood flood-opacity="0" result="BackgroundImageFix"/>
<feColorMatrix in="SourceAlpha" type="matrix" values="0 0 0 0 0 0 0 0 0 0 0 0 0 0 0 0 0 0 127 0" result="hardAlpha"/>
<feOffset dy="4"/>
<feGaussianBlur stdDeviation="2"/>
<feComposite in2="hardAlpha" operator="out"/>
<feColorMatrix type="matrix" values="0 0 0 0 0 0 0 0 0 0 0 0 0 0 0 0 0 0 0.25 0"/>
<feBlend mode="normal" in2="BackgroundImageFix" result="effect1_dropShadow_1_63"/>
<feBlend mode="normal" in="SourceGraphic" in2="effect1_dropShadow_1_63" result="shape"/>
</filter>
</defs>
</svg>
