<svg width="39" height="39" viewBox="0 0 39 39" fill="none" xmlns="http://www.w3.org/2000/svg">
<circle cx="19.4478" cy="19.4193" r="18.8082" fill="#97AFE3"/>
<circle cx="19.4478" cy="19.4193" r="18.8082" fill="#97AFE3"/>
<path d="M19.4217 10.7488C18.2514 10.7488 17.0926 10.9793 16.0114 11.4272C14.9303 11.875 13.9479 12.5314 13.1204 13.3589C11.4491 15.0302 10.5103 17.2968 10.5103 19.6603C10.5103 23.5992 13.0678 26.9409 16.6057 28.1262C17.0513 28.1975 17.1938 27.9212 17.1938 27.6806V26.1746C14.7254 26.7092 14.1996 24.9804 14.1996 24.9804C13.7897 23.9467 13.2104 23.6704 13.2104 23.6704C12.3995 23.1179 13.2728 23.1358 13.2728 23.1358C14.1639 23.1981 14.6363 24.0536 14.6363 24.0536C15.4116 25.4082 16.7215 25.0072 17.2295 24.7933C17.3097 24.214 17.5414 23.8219 17.7909 23.5992C15.8126 23.3764 13.7362 22.61 13.7362 19.2147C13.7362 18.2255 14.0748 17.4324 14.6541 16.7997C14.565 16.5769 14.2531 15.6501 14.7432 14.4471C14.7432 14.4471 15.4918 14.2065 17.1938 15.3561C17.8978 15.16 18.6642 15.062 19.4217 15.062C20.1792 15.062 20.9456 15.16 21.6496 15.3561C23.3517 14.2065 24.1002 14.4471 24.1002 14.4471C24.5903 15.6501 24.2784 16.5769 24.1893 16.7997C24.7686 17.4324 25.1072 18.2255 25.1072 19.2147C25.1072 22.6189 23.0219 23.3675 21.0347 23.5902C21.3555 23.8665 21.6496 24.4101 21.6496 25.2389V27.6806C21.6496 27.9212 21.7922 28.2064 22.2466 28.1262C25.7845 26.932 28.3332 23.5992 28.3332 19.6603C28.3332 18.49 28.1027 17.3312 27.6548 16.25C27.207 15.1688 26.5506 14.1864 25.7231 13.3589C24.8955 12.5314 23.9132 11.875 22.832 11.4272C21.7508 10.9793 20.592 10.7488 19.4217 10.7488Z" fill="white"/>
</svg>
