<svg width="18" height="19" viewBox="0 0 18 19" fill="none" xmlns="http://www.w3.org/2000/svg">
<path fill-rule="evenodd" clip-rule="evenodd" d="M12.9327 0.482056C14.2496 0.482056 15.5125 1.00516 16.4436 1.93631C17.3748 2.86745 17.8979 4.13034 17.8979 5.44717V13.3914C17.8979 14.7082 17.3748 15.9711 16.4436 16.9022C15.5125 17.8334 14.2496 18.3565 12.9327 18.3565H4.98856C3.67172 18.3565 2.40883 17.8334 1.47769 16.9022C0.546547 15.9711 0.0234375 14.7082 0.0234375 13.3914V5.44717C0.0234375 4.13034 0.546547 2.86745 1.47769 1.93631C2.40883 1.00516 3.67172 0.482056 4.98856 0.482056H12.9327ZM12.9327 2.4681H4.98856C4.19846 2.4681 3.44072 2.78197 2.88203 3.34065C2.32335 3.89934 2.00948 4.65707 2.00948 5.44717V13.3914C2.00948 14.1815 2.32335 14.9392 2.88203 15.4979C3.44072 16.0566 4.19846 16.3704 4.98856 16.3704H12.9327C13.7228 16.3704 14.4806 16.0566 15.0393 15.4979C15.598 14.9392 15.9118 14.1815 15.9118 13.3914V5.44717C15.9118 4.65707 15.598 3.89934 15.0393 3.34065C14.4806 2.78197 13.7228 2.4681 12.9327 2.4681ZM8.96065 5.44717C10.0141 5.44717 11.0244 5.86566 11.7693 6.61057C12.5143 7.35549 12.9327 8.3658 12.9327 9.41927C12.9327 10.4727 12.5143 11.4831 11.7693 12.228C11.0244 12.9729 10.0141 13.3914 8.96065 13.3914C7.90719 13.3914 6.89687 12.9729 6.15196 12.228C5.40704 11.4831 4.98856 10.4727 4.98856 9.41927C4.98856 8.3658 5.40704 7.35549 6.15196 6.61057C6.89687 5.86566 7.90719 5.44717 8.96065 5.44717ZM8.96065 7.43322C8.43392 7.43322 7.92876 7.64247 7.5563 8.01492C7.18385 8.38738 6.9746 8.89254 6.9746 9.41927C6.9746 9.946 7.18385 10.4512 7.5563 10.8236C7.92876 11.1961 8.43392 11.4053 8.96065 11.4053C9.48738 11.4053 9.99254 11.1961 10.365 10.8236C10.7375 10.4512 10.9467 9.946 10.9467 9.41927C10.9467 8.89254 10.7375 8.38738 10.365 8.01492C9.99254 7.64247 9.48738 7.43322 8.96065 7.43322ZM13.4293 3.95764C13.6926 3.95764 13.9452 4.06226 14.1314 4.24849C14.3177 4.43472 14.4223 4.6873 14.4223 4.95066C14.4223 5.21403 14.3177 5.46661 14.1314 5.65284C13.9452 5.83906 13.6926 5.94369 13.4293 5.94369C13.1659 5.94369 12.9133 5.83906 12.7271 5.65284C12.5409 5.46661 12.4362 5.21403 12.4362 4.95066C12.4362 4.6873 12.5409 4.43472 12.7271 4.24849C12.9133 4.06226 13.1659 3.95764 13.4293 3.95764Z" fill="white"/>
</svg>
