<svg width="314" height="108" viewBox="0 0 314 108" fill="none" xmlns="http://www.w3.org/2000/svg">
<g filter="url(#filter0_d_86_650)">
<g clip-path="url(#clip0_86_650)">
<g clip-path="url(#clip1_86_650)">
<rect width="250" height="44" transform="translate(32 32)" fill="#B3B3B3" fill-opacity="0.82"/>
<rect width="250" height="44" transform="translate(32 32)" fill="#383838" style="mix-blend-mode:color-dodge"/>
</g>
<mask id="path-2-outside-1_86_650" maskUnits="userSpaceOnUse" x="32" y="32" width="250" height="45" fill="black">
<rect fill="white" x="32" y="32" width="250" height="45"/>
<path d="M32 32H282V76H32V32Z"/>
</mask>
<path d="M282 75.5H32V76.5H282V75.5Z" fill="#808080" fill-opacity="0.55" mask="url(#path-2-outside-1_86_650)"/>
<path d="M56.4619 54.0068C56.4619 54.1729 56.4287 54.3306 56.3623 54.48C56.3014 54.6239 56.2018 54.7622 56.0635 54.895L49.6802 61.1455C49.4644 61.3558 49.2015 61.4609 48.8916 61.4609C48.6924 61.4609 48.507 61.4111 48.3354 61.3115C48.1639 61.2119 48.0256 61.0791 47.9204 60.9131C47.8208 60.7471 47.771 60.5589 47.771 60.3486C47.771 60.0443 47.8872 59.7731 48.1196 59.5352L53.8057 54.0068L48.1196 48.4785C47.8872 48.2461 47.771 47.9749 47.771 47.665C47.771 47.4603 47.8208 47.2749 47.9204 47.1089C48.0256 46.9373 48.1639 46.8018 48.3354 46.7021C48.507 46.6025 48.6924 46.5527 48.8916 46.5527C49.2015 46.5527 49.4644 46.6579 49.6802 46.8682L56.0635 53.1187C56.1963 53.2515 56.2959 53.3898 56.3623 53.5337C56.4287 53.6776 56.4619 53.8353 56.4619 54.0068Z" fill="black"/>
<path d="M64.87 60.02H63.255L68.355 47.78H69.239C69.511 47.78 69.7603 47.831 69.987 47.933C70.2137 48.0237 70.3837 48.1993 70.497 48.46L75.495 60.02H73.795L72.401 56.705H66.23L64.87 60.02ZM71.823 55.345L69.426 49.65L69.273 49.225L69.12 49.65L66.791 55.345H71.823ZM77.879 58.66V59.34C77.879 59.6913 77.7203 59.901 77.403 59.969C77.097 60.0483 76.774 60.0653 76.434 60.02V47.27C76.5927 47.2473 76.757 47.2417 76.927 47.253C77.1083 47.2643 77.2783 47.304 77.437 47.372C77.5843 47.44 77.709 47.542 77.811 47.678C77.913 47.814 77.964 47.9897 77.964 48.205V52.676C78.2473 52.268 78.644 51.9167 79.154 51.622C79.664 51.3273 80.276 51.18 80.99 51.18C81.602 51.18 82.1517 51.3047 82.639 51.554C83.1263 51.792 83.54 52.1093 83.88 52.506C84.22 52.914 84.4807 53.3843 84.662 53.917C84.8433 54.4497 84.934 55.0107 84.934 55.6C84.934 56.1893 84.849 56.7617 84.679 57.317C84.509 57.861 84.2597 58.3483 83.931 58.779C83.6023 59.2097 83.1887 59.5497 82.69 59.799C82.2027 60.0597 81.636 60.19 80.99 60.19C80.242 60.19 79.596 60.02 79.052 59.68C78.5193 59.34 78.1283 59 77.879 58.66ZM83.404 55.685C83.404 55.2997 83.3417 54.9143 83.217 54.529C83.1037 54.1323 82.9337 53.781 82.707 53.475C82.4803 53.169 82.197 52.9197 81.857 52.727C81.517 52.5343 81.126 52.438 80.684 52.438C80.2307 52.438 79.834 52.5343 79.494 52.727C79.154 52.9083 78.8707 53.152 78.644 53.458C78.4173 53.764 78.2473 54.1097 78.134 54.495C78.0207 54.8803 77.964 55.277 77.964 55.685C77.964 56.059 78.015 56.4387 78.117 56.824C78.219 57.198 78.3833 57.5437 78.61 57.861C78.8253 58.1783 79.103 58.439 79.443 58.643C79.7943 58.8357 80.208 58.932 80.684 58.932C81.126 58.932 81.5113 58.83 81.84 58.626C82.18 58.422 82.469 58.1557 82.707 57.827C82.9337 57.5097 83.1037 57.164 83.217 56.79C83.3417 56.4047 83.404 56.0363 83.404 55.685ZM85.8723 55.685C85.8723 55.039 85.9743 54.444 86.1783 53.9C86.3823 53.3447 86.677 52.8687 87.0623 52.472C87.4476 52.0753 87.9123 51.7637 88.4563 51.537C89.0003 51.299 89.6123 51.18 90.2923 51.18C90.961 51.18 91.5673 51.299 92.1113 51.537C92.6553 51.7637 93.12 52.0753 93.5053 52.472C93.8906 52.8687 94.1853 53.3447 94.3893 53.9C94.6046 54.444 94.7123 55.039 94.7123 55.685C94.7123 56.297 94.6046 56.8807 94.3893 57.436C94.174 57.98 93.8736 58.456 93.4883 58.864C93.0916 59.272 92.6213 59.595 92.0773 59.833C91.5446 60.071 90.9496 60.19 90.2923 60.19C89.6236 60.19 89.0173 60.071 88.4733 59.833C87.9293 59.595 87.4646 59.272 87.0793 58.864C86.694 58.456 86.3936 57.98 86.1783 57.436C85.9743 56.8807 85.8723 56.297 85.8723 55.685ZM87.4023 55.685C87.4023 56.0817 87.4533 56.4727 87.5553 56.858C87.6686 57.2433 87.8443 57.589 88.0823 57.895C88.309 58.2123 88.6036 58.4673 88.9663 58.66C89.3403 58.8413 89.7823 58.932 90.2923 58.932C90.7796 58.932 91.2046 58.8413 91.5673 58.66C91.93 58.4673 92.2303 58.2123 92.4683 57.895C92.7063 57.589 92.882 57.2433 92.9953 56.858C93.12 56.4727 93.1823 56.0817 93.1823 55.685C93.1823 55.277 93.1143 54.8803 92.9783 54.495C92.8536 54.0983 92.6666 53.7527 92.4173 53.458C92.168 53.152 91.862 52.9083 91.4993 52.727C91.148 52.5343 90.7456 52.438 90.2923 52.438C89.8276 52.438 89.414 52.5343 89.0513 52.727C88.7 52.9083 88.3996 53.152 88.1503 53.458C87.901 53.7527 87.714 54.0983 87.5893 54.495C87.4646 54.8803 87.4023 55.277 87.4023 55.685ZM104.064 52.285V58.983C104.064 59.153 104.069 59.2947 104.081 59.408C104.092 59.5213 104.103 59.612 104.115 59.68C104.126 59.7593 104.143 59.8217 104.166 59.867C104.188 59.9237 104.211 59.9747 104.234 60.02C104.064 60.0427 103.882 60.054 103.69 60.054C103.497 60.0653 103.321 60.054 103.163 60.02C103.004 59.986 102.874 59.9237 102.772 59.833C102.67 59.7423 102.619 59.6063 102.619 59.425V58.745C102.301 59.2097 101.854 59.5667 101.276 59.816C100.698 60.0653 100.125 60.19 99.5586 60.19C98.4366 60.19 97.547 59.8557 96.8896 59.187C96.2323 58.5297 95.9036 57.6173 95.9036 56.45V51.35C96.0623 51.3273 96.2266 51.3217 96.3966 51.333C96.578 51.3443 96.748 51.384 96.9066 51.452C97.054 51.52 97.1786 51.622 97.2806 51.758C97.3826 51.894 97.4336 52.0697 97.4336 52.285V55.77C97.4336 56.8013 97.632 57.589 98.0286 58.133C98.4366 58.6657 99.0033 58.932 99.7286 58.932C100.658 58.932 101.355 58.5977 101.82 57.929C102.296 57.2603 102.534 56.399 102.534 55.345V51.35C102.692 51.3273 102.857 51.3217 103.027 51.333C103.208 51.3443 103.378 51.384 103.537 51.452C103.684 51.52 103.809 51.622 103.911 51.758C104.013 51.894 104.064 52.0697 104.064 52.285ZM110.023 58.813C110.193 58.813 110.335 58.8073 110.448 58.796C110.561 58.7847 110.658 58.7733 110.737 58.762C110.816 58.7393 110.879 58.7167 110.924 58.694C110.969 58.6713 111.02 58.6487 111.077 58.626L111.128 59.391C111.139 59.5383 111.117 59.663 111.06 59.765C111.003 59.867 110.901 59.9407 110.754 59.986C110.595 60.0313 110.431 60.0597 110.261 60.071C110.091 60.0937 109.927 60.105 109.768 60.105C108.952 60.105 108.266 59.901 107.711 59.493C107.156 59.085 106.878 58.439 106.878 57.555V52.642H104.838V51.384H106.878V48.8H108.408V51.384H110.958C110.992 51.6787 110.958 51.9677 110.856 52.251C110.754 52.5343 110.533 52.676 110.193 52.676H108.408V57.215C108.408 57.7817 108.561 58.1897 108.867 58.439C109.173 58.6883 109.558 58.813 110.023 58.813ZM125.827 48.919C125.85 48.851 125.878 48.783 125.912 48.715C125.946 48.647 125.986 48.579 126.031 48.511C126.201 48.1937 126.405 47.9953 126.643 47.916C126.892 47.8253 127.17 47.78 127.476 47.78H128.972V60.02H127.357V49.905L127.374 49.14C127.261 49.3553 127.176 49.5253 127.119 49.65C127.062 49.7633 127.017 49.8653 126.983 49.956C126.677 50.772 126.388 51.5313 126.116 52.234C125.844 52.9367 125.572 53.6223 125.3 54.291C125.028 54.9483 124.75 55.6057 124.467 56.263C124.195 56.9203 123.9 57.606 123.583 58.32H121.951C121.645 57.5607 121.35 56.8523 121.067 56.195C120.795 55.5263 120.523 54.869 120.251 54.223C119.968 53.5657 119.684 52.897 119.401 52.217C119.129 51.5257 118.846 50.772 118.551 49.956L118.16 49.14L118.177 49.973V60.02H116.562V47.78H118.126C118.432 47.78 118.704 47.8253 118.942 47.916C119.18 47.9953 119.39 48.1937 119.571 48.511C119.582 48.545 119.611 48.6187 119.656 48.732C119.701 48.834 119.82 49.123 120.013 49.599C120.206 50.0637 120.495 50.789 120.88 51.775C121.277 52.761 121.838 54.1493 122.563 55.94C122.586 56.008 122.608 56.076 122.631 56.144C122.654 56.212 122.676 56.28 122.699 56.348C122.71 56.416 122.722 56.484 122.733 56.552C122.756 56.6087 122.778 56.6597 122.801 56.705C122.835 56.5803 122.875 56.45 122.92 56.314C122.965 56.1667 123.011 56.042 123.056 55.94C123.351 55.192 123.634 54.478 123.906 53.798C124.178 53.1067 124.427 52.4663 124.654 51.877C124.892 51.2763 125.107 50.7267 125.3 50.228C125.493 49.7293 125.668 49.293 125.827 48.919ZM131.729 54.92H137.084C137.073 54.6027 137.005 54.2967 136.88 54.002C136.756 53.7073 136.58 53.441 136.353 53.203C136.138 52.9763 135.872 52.795 135.554 52.659C135.237 52.5117 134.886 52.438 134.5 52.438C134.07 52.438 133.684 52.5173 133.344 52.676C133.016 52.8233 132.738 53.016 132.511 53.254C132.285 53.492 132.103 53.7583 131.967 54.053C131.843 54.3477 131.763 54.6367 131.729 54.92ZM137.73 58.184L137.849 58.966C137.861 59.1133 137.861 59.238 137.849 59.34C137.838 59.4533 137.781 59.544 137.679 59.612C137.249 59.884 136.795 60.0483 136.319 60.105C135.843 60.1617 135.379 60.19 134.925 60.19C133.361 60.19 132.177 59.7763 131.372 58.949C130.568 58.1217 130.165 57.0053 130.165 55.6C130.165 54.9653 130.267 54.376 130.471 53.832C130.675 53.288 130.97 52.8233 131.355 52.438C131.729 52.0413 132.183 51.7353 132.715 51.52C133.248 51.2933 133.843 51.18 134.5 51.18C135.248 51.18 135.883 51.3103 136.404 51.571C136.937 51.8203 137.368 52.166 137.696 52.608C138.036 53.05 138.28 53.5713 138.427 54.172C138.586 54.7727 138.665 55.4187 138.665 56.11H131.729C131.741 56.96 132.035 57.6457 132.613 58.167C133.203 58.677 133.973 58.932 134.925 58.932C135.435 58.932 135.923 58.864 136.387 58.728C136.863 58.592 137.311 58.4107 137.73 58.184Z" fill="black"/>
</g>
</g>
<defs>
<filter id="filter0_d_86_650" x="0" y="0" width="314" height="108" filterUnits="userSpaceOnUse" color-interpolation-filters="sRGB">
<feFlood flood-opacity="0" result="BackgroundImageFix"/>
<feColorMatrix in="SourceAlpha" type="matrix" values="0 0 0 0 0 0 0 0 0 0 0 0 0 0 0 0 0 0 127 0" result="hardAlpha"/>
<feOffset/>
<feGaussianBlur stdDeviation="16"/>
<feComposite in2="hardAlpha" operator="out"/>
<feColorMatrix type="matrix" values="0 0 0 0 0 0 0 0 0 0 0 0 0 0 0 0 0 0 0.2 0"/>
<feBlend mode="normal" in2="BackgroundImageFix" result="effect1_dropShadow_86_650"/>
<feBlend mode="normal" in="SourceGraphic" in2="effect1_dropShadow_86_650" result="shape"/>
</filter>
<clipPath id="clip0_86_650">
<rect x="32" y="32" width="250" height="44" rx="12" fill="white"/>
</clipPath>
<clipPath id="clip1_86_650">
<rect width="250" height="44" fill="white" transform="translate(32 32)"/>
</clipPath>
</defs>
</svg>
