<svg width="272" height="79" viewBox="0 0 272 79" fill="none" xmlns="http://www.w3.org/2000/svg">
<path d="M0.11315 78.1846C5.31315 78.9846 10.4465 76.1212 12.1132 74.2879C10.3953 70.1914 21.0011 60.2419 14.0011 60.2415C12.3825 60.2415 11 56.0014 5.11315 59.1846C5.09194 60.4714 5.11315 64.9258 5.11315 65.6842C5.11315 76.1842 -0.88685 77.5813 0.11315 78.1846Z" fill="#E9E9EB"/>
<rect x="5.1001" width="266.9" height="78" rx="18" fill="#E9E9EB"/>
<path d="M18.2901 14.01C18.2901 13.568 18.3751 13.1543 18.5451 12.769C18.7151 12.3723 18.9474 12.0267 19.2421 11.732C19.5368 11.4373 19.8768 11.205 20.2621 11.035C20.6588 10.865 21.0781 10.78 21.5201 10.78C21.9508 10.78 22.3588 10.865 22.7441 11.035C23.1408 11.205 23.4864 11.4373 23.7811 11.732C24.0758 12.0267 24.3081 12.3723 24.4781 12.769C24.6594 13.1543 24.7501 13.568 24.7501 14.01C24.7501 14.4633 24.6594 14.8883 24.4781 15.285C24.3081 15.6703 24.0758 16.0103 23.7811 16.305C23.4864 16.5997 23.1408 16.832 22.7441 17.002C22.3588 17.1607 21.9508 17.24 21.5201 17.24C21.0781 17.24 20.6588 17.1607 20.2621 17.002C19.8768 16.832 19.5368 16.5997 19.2421 16.305C18.9474 16.0103 18.7151 15.6703 18.5451 15.285C18.3751 14.8883 18.2901 14.4633 18.2901 14.01ZM19.1571 14.01C19.1571 14.3613 19.2194 14.69 19.3441 14.996C19.4688 15.302 19.6388 15.574 19.8541 15.812C20.0694 16.0387 20.3188 16.22 20.6021 16.356C20.8968 16.4807 21.2028 16.543 21.5201 16.543C21.8261 16.543 22.1208 16.4807 22.4041 16.356C22.6988 16.22 22.9538 16.0387 23.1691 15.812C23.3844 15.574 23.5544 15.302 23.6791 14.996C23.8151 14.69 23.8831 14.3613 23.8831 14.01C23.8831 13.67 23.8151 13.347 23.6791 13.041C23.5544 12.7237 23.3844 12.4517 23.1691 12.225C22.9538 11.9983 22.6988 11.817 22.4041 11.681C22.1208 11.545 21.8261 11.477 21.5201 11.477C21.2028 11.477 20.8968 11.545 20.6021 11.681C20.3188 11.817 20.0694 11.9983 19.8541 12.225C19.6388 12.4517 19.4688 12.7237 19.3441 13.041C19.2194 13.347 19.1571 13.67 19.1571 14.01ZM28.8301 14.35V19.96H27.9631V9.93C28.1671 9.93 28.3598 9.96967 28.5411 10.049C28.7338 10.117 28.8301 10.2757 28.8301 10.525V13.636H31.1251C31.1251 13.7833 31.1138 13.908 31.0911 14.01C31.0798 14.1007 31.0571 14.1687 31.0231 14.214C30.9664 14.282 30.9098 14.3217 30.8531 14.333C30.8078 14.3443 30.7851 14.35 30.7851 14.35H28.8301ZM20.2621 22.578H29.0851C29.0851 22.7707 29.0568 22.935 29.0001 23.071C28.9548 23.207 28.8471 23.275 28.6771 23.275H19.3951V18.94H20.2621V22.578ZM38.7044 17.835C39.3391 17.835 39.9228 17.9143 40.4554 18.073C40.9881 18.2317 41.4414 18.447 41.8154 18.719C42.2008 18.991 42.5011 19.3083 42.7164 19.671C42.9318 20.0223 43.0394 20.402 43.0394 20.81C43.0394 21.218 42.9318 21.6033 42.7164 21.966C42.5011 22.3287 42.2008 22.646 41.8154 22.918C41.4414 23.19 40.9881 23.3997 40.4554 23.547C39.9228 23.7057 39.3391 23.785 38.7044 23.785C38.0584 23.785 37.4691 23.7057 36.9364 23.547C36.4151 23.3997 35.9618 23.19 35.5764 22.918C35.1911 22.646 34.8908 22.3287 34.6754 21.966C34.4714 21.6033 34.3694 21.218 34.3694 20.81C34.3694 20.402 34.4714 20.0223 34.6754 19.671C34.8908 19.3083 35.1911 18.991 35.5764 18.719C35.9618 18.447 36.4151 18.2317 36.9364 18.073C37.4691 17.9143 38.0584 17.835 38.7044 17.835ZM38.7044 23.088C39.7584 23.088 40.5971 22.867 41.2204 22.425C41.8438 21.9943 42.1554 21.456 42.1554 20.81C42.1554 20.1753 41.8438 19.637 41.2204 19.195C40.5971 18.753 39.7584 18.532 38.7044 18.532C37.6504 18.532 36.8118 18.753 36.1884 19.195C35.5651 19.637 35.2534 20.1753 35.2534 20.81C35.2534 21.456 35.5651 21.9943 36.1884 22.425C36.8118 22.867 37.6504 23.088 38.7044 23.088ZM42.3424 14.622H38.7894V13.925H42.3424V12.582H38.7894V11.885H42.3424V9.93C42.5464 9.93 42.7391 9.96967 42.9204 10.049C43.1131 10.117 43.2094 10.2757 43.2094 10.525V17.58H42.3424V14.622ZM39.6564 16.56H32.5844V10.78C32.7884 10.78 32.9811 10.8197 33.1624 10.899C33.3551 10.967 33.4514 11.1257 33.4514 11.375V15.863H40.0644C40.0531 16.033 40.0134 16.1917 39.9454 16.339C39.8888 16.4863 39.7924 16.56 39.6564 16.56ZM48.2898 12.837H45.8588V12.14H49.2418C49.4118 11.9133 49.6101 11.613 49.8368 11.239C50.0635 10.865 50.2675 10.4853 50.4488 10.1C50.5395 10.1453 50.6245 10.1907 50.7038 10.236C50.7831 10.27 50.8568 10.304 50.9248 10.338C50.9928 10.372 51.0608 10.406 51.1288 10.44C51.1968 10.474 51.2705 10.5023 51.3498 10.525C51.2251 10.7403 51.0381 11.0123 50.7888 11.341C50.5508 11.6583 50.3128 11.9247 50.0748 12.14H53.6788C53.6788 12.276 53.6675 12.395 53.6448 12.497C53.6221 12.5877 53.5938 12.6557 53.5598 12.701C53.5258 12.7577 53.4861 12.7973 53.4408 12.82C53.3955 12.8313 53.3615 12.837 53.3388 12.837H51.2478C51.8258 13.1657 52.2905 13.653 52.6418 14.299C52.9931 14.9337 53.1688 15.625 53.1688 16.373C53.1688 16.8943 53.0838 17.393 52.9138 17.869C52.7438 18.3337 52.5115 18.7473 52.2168 19.11C51.9108 19.4727 51.5481 19.7617 51.1288 19.977C50.7208 20.1923 50.2675 20.3 49.7688 20.3C49.2588 20.3 48.7941 20.1923 48.3748 19.977C47.9668 19.7617 47.6098 19.4727 47.3038 19.11C47.0091 18.7473 46.7768 18.3337 46.6068 17.869C46.4481 17.393 46.3688 16.8943 46.3688 16.373C46.3688 15.625 46.5388 14.9337 46.8788 14.299C47.2188 13.653 47.6891 13.1657 48.2898 12.837ZM49.7688 19.603C50.0635 19.603 50.3581 19.5293 50.6528 19.382C50.9588 19.2233 51.2308 18.9967 51.4688 18.702C51.7181 18.4187 51.9165 18.0787 52.0638 17.682C52.2225 17.274 52.3018 16.8263 52.3018 16.339C52.3018 15.8517 52.2225 15.4097 52.0638 15.013C51.9165 14.6163 51.7181 14.2707 51.4688 13.976C51.2308 13.6927 50.9588 13.4717 50.6528 13.313C50.3581 13.1543 50.0635 13.075 49.7688 13.075C49.4628 13.075 49.1568 13.1543 48.8508 13.313C48.5561 13.4717 48.2898 13.6927 48.0518 13.976C47.8025 14.2707 47.6041 14.6163 47.4568 15.013C47.3095 15.4097 47.2358 15.8517 47.2358 16.339C47.2358 16.8263 47.3095 17.274 47.4568 17.682C47.6041 18.0787 47.8025 18.4187 48.0518 18.702C48.2898 18.9967 48.5561 19.2233 48.8508 19.382C49.1568 19.5293 49.4628 19.603 49.7688 19.603ZM56.5688 15.88V23.7H55.7018V10.1C55.9058 10.1 56.0985 10.1397 56.2798 10.219C56.4725 10.287 56.5688 10.4457 56.5688 10.695V15.166H58.8638C58.8638 15.3133 58.8525 15.438 58.8298 15.54C58.8185 15.6307 58.7958 15.6987 58.7618 15.744C58.7051 15.812 58.6485 15.8517 58.5918 15.863C58.5465 15.8743 58.5238 15.88 58.5238 15.88H56.5688ZM68.3301 10.865V23.36H67.4631V15.71H64.9981V14.996H67.4631V10.27C67.6671 10.27 67.8598 10.3097 68.0411 10.389C68.2338 10.457 68.3301 10.6157 68.3301 10.865ZM63.4341 11.8V12.65C63.4001 13.1033 63.3435 13.5397 63.2641 13.959C63.1961 14.367 63.1111 14.758 63.0091 15.132C63.2131 15.54 63.4455 15.9707 63.7061 16.424C63.9781 16.866 64.2558 17.291 64.5391 17.699C64.8338 18.107 65.1228 18.481 65.4061 18.821C65.6895 19.161 65.9501 19.416 66.1881 19.586C66.1088 19.688 66.0465 19.7673 66.0011 19.824C65.9558 19.8807 65.9161 19.9203 65.8821 19.943C65.8595 19.977 65.8425 19.9997 65.8311 20.011C65.8198 20.0223 65.8085 20.0337 65.7971 20.045C65.7178 20.1243 65.6498 20.164 65.5931 20.164C65.5365 20.1527 65.4798 20.113 65.4231 20.045C65.0038 19.603 64.5391 19.025 64.0291 18.311C63.5191 17.5857 63.0601 16.883 62.6521 16.203C62.3121 17.087 61.9098 17.869 61.4451 18.549C60.9918 19.2177 60.5498 19.773 60.1191 20.215C60.0851 20.249 60.0568 20.2717 60.0341 20.283C60.0115 20.2943 59.9888 20.2943 59.9661 20.283C59.9321 20.283 59.9038 20.2773 59.8811 20.266C59.8585 20.2547 59.8358 20.2377 59.8131 20.215C59.7565 20.1923 59.7055 20.164 59.6601 20.13C59.6261 20.0847 59.5865 20.0393 59.5411 19.994C59.5071 19.96 59.4731 19.926 59.4391 19.892C59.4165 19.8467 59.3995 19.8127 59.3881 19.79C59.6035 19.586 59.8868 19.2573 60.2381 18.804C60.5895 18.3393 60.9351 17.784 61.2751 17.138C61.6038 16.5033 61.8815 15.7893 62.1081 14.996C62.3461 14.2027 62.4595 13.364 62.4481 12.48V11.205C62.6861 11.1823 62.9071 11.2163 63.1111 11.307C63.3265 11.3863 63.4341 11.5507 63.4341 11.8ZM71.2031 10.695V23.7H70.3361V10.1C70.5401 10.1 70.7328 10.1397 70.9141 10.219C71.1068 10.287 71.2031 10.4457 71.2031 10.695ZM75.5525 14.435C75.5525 13.9363 75.6601 13.466 75.8755 13.024C76.0908 12.582 76.3855 12.191 76.7595 11.851C77.1448 11.5223 77.5868 11.2617 78.0855 11.069C78.5955 10.8763 79.1395 10.78 79.7175 10.78C80.2841 10.78 80.8168 10.8763 81.3155 11.069C81.8255 11.2617 82.2731 11.5223 82.6585 11.851C83.0325 12.191 83.3271 12.582 83.5425 13.024C83.7691 13.466 83.8825 13.9363 83.8825 14.435C83.8825 14.945 83.7691 15.421 83.5425 15.863C83.3271 16.305 83.0325 16.696 82.6585 17.036C82.2731 17.3647 81.8255 17.6253 81.3155 17.818C80.8168 17.9993 80.2841 18.09 79.7175 18.09C79.1395 18.09 78.5955 17.9993 78.0855 17.818C77.5868 17.6253 77.1448 17.3647 76.7595 17.036C76.3855 16.696 76.0908 16.305 75.8755 15.863C75.6601 15.421 75.5525 14.945 75.5525 14.435ZM76.4195 14.435C76.4195 14.843 76.5045 15.2283 76.6745 15.591C76.8445 15.9537 77.0768 16.2653 77.3715 16.526C77.6775 16.798 78.0288 17.0133 78.4255 17.172C78.8221 17.3193 79.2528 17.393 79.7175 17.393C80.1708 17.393 80.5958 17.3193 80.9925 17.172C81.3891 17.0133 81.7405 16.798 82.0465 16.526C82.3411 16.2653 82.5735 15.9537 82.7435 15.591C82.9248 15.2283 83.0155 14.843 83.0155 14.435C83.0155 14.027 82.9248 13.6473 82.7435 13.296C82.5735 12.9333 82.3411 12.616 82.0465 12.344C81.7405 12.0833 81.3891 11.8737 80.9925 11.715C80.5958 11.5563 80.1708 11.477 79.7175 11.477C79.2528 11.477 78.8221 11.5563 78.4255 11.715C78.0288 11.8737 77.6775 12.0833 77.3715 12.344C77.0768 12.616 76.8445 12.9333 76.6745 13.296C76.5045 13.6473 76.4195 14.027 76.4195 14.435ZM82.7945 21.388H86.0075C85.9961 21.558 85.9565 21.7167 85.8885 21.864C85.8205 22.0113 85.7185 22.085 85.5825 22.085H73.4275V21.388H76.6405V18.26C76.8445 18.26 77.0371 18.2997 77.2185 18.379C77.4111 18.447 77.5075 18.6057 77.5075 18.855V21.388H81.9275V18.26C82.1315 18.26 82.3241 18.2997 82.5055 18.379C82.6981 18.447 82.7945 18.6057 82.7945 18.855V21.388ZM94.4708 11.035L93.2298 19.45H92.6008L93.4168 11.035H94.4708ZM92.0398 22.68L92.2098 21.405H93.2128C93.1902 21.5183 93.1732 21.6317 93.1618 21.745C93.1505 21.847 93.1392 21.949 93.1278 22.051C93.1165 22.153 93.1052 22.255 93.0938 22.357C93.0825 22.4703 93.0712 22.578 93.0598 22.68H92.0398ZM18.8001 33.375H24.4951V33.749C24.4951 33.8397 24.4894 33.936 24.4781 34.038C24.4781 34.14 24.4781 34.2307 24.4781 34.31C24.4441 34.9787 24.2854 35.6473 24.0021 36.316C23.7301 36.9733 23.3901 37.6023 22.9821 38.203C23.2541 38.5997 23.5488 38.9793 23.8661 39.342C24.1948 39.6933 24.5121 40.0163 24.8181 40.311C25.1241 40.617 25.4074 40.8777 25.6681 41.093C25.9288 41.3083 26.1328 41.4727 26.2801 41.586L25.8551 42.045C25.8098 42.113 25.7588 42.147 25.7021 42.147C25.6568 42.1357 25.6171 42.113 25.5831 42.079C25.0051 41.6143 24.4441 41.1043 23.9001 40.549C23.3561 39.9823 22.8744 39.444 22.4551 38.934C21.8544 39.716 21.2311 40.4073 20.5851 41.008C19.9504 41.5973 19.4461 42.028 19.0721 42.3C19.0268 42.3227 18.9928 42.3397 18.9701 42.351C18.9474 42.351 18.9304 42.3453 18.9191 42.334C18.8964 42.334 18.8794 42.3283 18.8681 42.317C18.8568 42.3057 18.8454 42.2887 18.8341 42.266C18.8001 42.232 18.7661 42.198 18.7321 42.164C18.6981 42.13 18.6641 42.0903 18.6301 42.045C18.5961 42.011 18.5621 41.977 18.5281 41.943C18.5054 41.909 18.4828 41.8693 18.4601 41.824C18.7321 41.6313 19.1288 41.3083 19.6501 40.855C20.1828 40.4017 20.7154 39.8577 21.2481 39.223C21.7921 38.5883 22.2794 37.88 22.7101 37.098C23.1408 36.316 23.4071 35.5 23.5091 34.65V34.072H18.8001V33.375ZM29.4251 32.695V45.7H28.5581V37.88H25.2601V37.166H28.5581V32.1C28.7621 32.1 28.9548 32.1397 29.1361 32.219C29.3288 32.287 29.4251 32.4457 29.4251 32.695ZM31.8194 39.308H44.3994C44.3881 39.478 44.3484 39.6367 44.2804 39.784C44.2124 39.9313 44.1104 40.005 43.9744 40.005H31.8194V39.308ZM34.3014 44.578H43.1244C43.1244 44.7707 43.0961 44.935 43.0394 45.071C42.9941 45.207 42.8864 45.275 42.7164 45.275H33.4344V41.28H34.3014V44.578ZM42.4614 37.285H33.3494V32.61C33.5534 32.61 33.7461 32.6497 33.9274 32.729C34.1201 32.797 34.2164 32.9557 34.2164 33.205V36.588H42.8694C42.8581 36.758 42.8184 36.9167 42.7504 37.064C42.6938 37.2113 42.5974 37.285 42.4614 37.285ZM52.6928 33.715L51.1118 35.16C50.9871 35.262 50.8738 35.364 50.7718 35.466C50.6811 35.568 50.6018 35.67 50.5338 35.772L50.3298 35.5C50.2618 35.398 50.2165 35.3017 50.1938 35.211C50.1825 35.1203 50.2108 35.0467 50.2788 34.99C50.4715 34.82 50.6641 34.6557 50.8568 34.497C51.0495 34.327 51.2421 34.157 51.4348 33.987C51.6275 33.8283 51.8201 33.6697 52.0128 33.511C52.2055 33.3523 52.3981 33.1937 52.5908 33.035H53.5428V44.765H52.6928V33.715ZM58.6631 33.647C58.3684 33.681 58.1021 33.7377 57.8641 33.817C57.6261 33.885 57.3994 33.97 57.1841 34.072L57.1501 33.715C57.1388 33.613 57.1444 33.528 57.1671 33.46C57.1898 33.3807 57.2294 33.324 57.2861 33.29C57.7281 33.154 58.1928 33.052 58.6801 32.984C59.1674 32.9047 59.6378 32.865 60.0911 32.865C60.5898 32.865 61.0714 32.9273 61.5361 33.052C62.0121 33.1767 62.4314 33.3637 62.7941 33.613C63.1568 33.8623 63.4458 34.174 63.6611 34.548C63.8878 34.922 64.0011 35.3527 64.0011 35.84C64.0011 36.146 63.9218 36.4407 63.7631 36.724C63.6158 36.996 63.4174 37.2453 63.1681 37.472C62.9301 37.6987 62.6581 37.897 62.3521 38.067C62.0461 38.2257 61.7401 38.3447 61.4341 38.424L60.7711 38.645L61.4681 38.815C61.8534 38.883 62.2104 39.0077 62.5391 39.189C62.8678 39.359 63.1511 39.58 63.3891 39.852C63.6271 40.1127 63.8141 40.413 63.9501 40.753C64.0974 41.0817 64.1711 41.4273 64.1711 41.79C64.1711 42.368 64.0351 42.861 63.7631 43.269C63.4911 43.6657 63.1341 43.9887 62.6921 44.238C62.2501 44.4873 61.7458 44.663 61.1791 44.765C60.6238 44.8783 60.0628 44.935 59.4961 44.935C59.0201 44.935 58.5498 44.901 58.0851 44.833C57.6204 44.765 57.1841 44.6573 56.7761 44.51C56.7081 44.4873 56.6628 44.4307 56.6401 44.34C56.6288 44.2607 56.6288 44.17 56.6401 44.068C56.6401 44.0227 56.6401 43.966 56.6401 43.898C56.6514 43.83 56.6628 43.762 56.6741 43.694C56.8554 43.7847 57.0594 43.8697 57.2861 43.949C57.5241 44.0283 57.7621 44.085 58.0001 44.119C58.2041 44.153 58.4251 44.1813 58.6631 44.204C58.9124 44.238 59.1618 44.255 59.4111 44.255C59.9778 44.255 60.4991 44.1927 60.9751 44.068C61.4624 43.9547 61.8761 43.7903 62.2161 43.575C62.5674 43.3597 62.8394 43.099 63.0321 42.793C63.2248 42.487 63.3211 42.1527 63.3211 41.79C63.3211 41.3027 63.1964 40.8833 62.9471 40.532C62.6978 40.1807 62.3748 39.8917 61.9781 39.665C61.5928 39.4383 61.1621 39.274 60.6861 39.172C60.2214 39.0587 59.7681 39.002 59.3261 39.002H58.3061V38.322H59.3261C59.6774 38.322 60.0741 38.271 60.5161 38.169C60.9694 38.0557 61.3888 37.8913 61.7741 37.676C62.1594 37.4607 62.4824 37.2 62.7431 36.894C63.0151 36.588 63.1511 36.2367 63.1511 35.84C63.1511 35.4433 63.0548 35.1033 62.8621 34.82C62.6694 34.5253 62.4258 34.2817 62.1311 34.089C61.8364 33.9077 61.5021 33.7717 61.1281 33.681C60.7541 33.5903 60.3801 33.545 60.0061 33.545C59.7681 33.545 59.5358 33.5563 59.3091 33.579C59.0824 33.6017 58.8671 33.6243 58.6631 33.647ZM77.0198 32.695V45.7H76.1528V32.1C76.3568 32.1 76.5495 32.1397 76.7308 32.219C76.9235 32.287 77.0198 32.4457 77.0198 32.695ZM66.2248 41.841C66.5648 41.6597 67.0408 41.3877 67.6528 41.025C68.2648 40.651 68.8768 40.175 69.4888 39.597C70.1008 39.0303 70.6335 38.3503 71.0868 37.557C71.5515 36.7637 71.8008 35.8513 71.8348 34.82V34.072H66.5648V33.375H72.7698V34.055C72.7698 34.1797 72.7641 34.3327 72.7528 34.514C72.7528 34.6953 72.7528 34.8257 72.7528 34.905C72.6848 35.8683 72.4298 36.7523 71.9878 37.557C71.5458 38.3617 71.0301 39.0757 70.4408 39.699C69.8401 40.3223 69.2168 40.855 68.5708 41.297C67.9361 41.739 67.3921 42.0733 66.9388 42.3C66.8708 42.3453 66.7971 42.368 66.7178 42.368C66.6498 42.368 66.5988 42.3453 66.5648 42.3C66.4968 42.232 66.4288 42.1583 66.3608 42.079C66.2928 41.9883 66.2475 41.909 66.2248 41.841ZM83.5961 37.71C83.5961 37.1093 83.6868 36.5483 83.8681 36.027C84.0608 35.4943 84.3215 35.0297 84.6501 34.633C84.9901 34.2477 85.3811 33.9417 85.8231 33.715C86.2651 33.4883 86.7411 33.375 87.2511 33.375C87.7498 33.375 88.2201 33.4883 88.6621 33.715C89.1041 33.9417 89.4951 34.2477 89.8351 34.633C90.1638 35.0297 90.4245 35.4943 90.6171 36.027C90.8098 36.5483 90.9061 37.1093 90.9061 37.71C90.9061 38.322 90.8098 38.8943 90.6171 39.427C90.4245 39.9483 90.1638 40.4073 89.8351 40.804C89.4951 41.1893 89.1041 41.4953 88.6621 41.722C88.2201 41.9373 87.7498 42.045 87.2511 42.045C86.7411 42.045 86.2651 41.9373 85.8231 41.722C85.3811 41.4953 84.9901 41.1893 84.6501 40.804C84.3215 40.4073 84.0608 39.9483 83.8681 39.427C83.6868 38.8943 83.5961 38.322 83.5961 37.71ZM87.2511 41.348C88.0445 41.348 88.7075 41.0137 89.2401 40.345C89.7728 39.6763 90.0391 38.798 90.0391 37.71C90.0391 36.622 89.7728 35.7437 89.2401 35.075C88.7075 34.4063 88.0445 34.072 87.2511 34.072C86.4465 34.072 85.7778 34.4063 85.2451 35.075C84.7238 35.7437 84.4631 36.622 84.4631 37.71C84.4631 38.798 84.7238 39.6763 85.2451 40.345C85.7778 41.0137 86.4465 41.348 87.2511 41.348ZM94.3061 37.88V45.7H93.4391V32.1C93.6431 32.1 93.8358 32.1397 94.0171 32.219C94.2098 32.287 94.3061 32.4457 94.3061 32.695V37.166H96.6011C96.6011 37.3133 96.5898 37.438 96.5671 37.54C96.5558 37.6307 96.5331 37.6987 96.4991 37.744C96.4425 37.812 96.3858 37.8517 96.3291 37.863C96.2838 37.8743 96.2611 37.88 96.2611 37.88H94.3061ZM108.6 32.695V45.7H107.733V32.1C107.937 32.1 108.13 32.1397 108.311 32.219C108.504 32.287 108.6 32.4457 108.6 32.695ZM97.8055 41.841C98.1455 41.6597 98.6215 41.3877 99.2335 41.025C99.8455 40.651 100.457 40.175 101.069 39.597C101.681 39.0303 102.214 38.3503 102.667 37.557C103.132 36.7637 103.381 35.8513 103.415 34.82V34.072H98.1455V33.375H104.35V34.055C104.35 34.1797 104.345 34.3327 104.333 34.514C104.333 34.6953 104.333 34.8257 104.333 34.905C104.265 35.8683 104.01 36.7523 103.568 37.557C103.126 38.3617 102.611 39.0757 102.021 39.699C101.421 40.3223 100.797 40.855 100.151 41.297C99.5168 41.739 98.9728 42.0733 98.5195 42.3C98.4515 42.3453 98.3778 42.368 98.2985 42.368C98.2305 42.368 98.1795 42.3453 98.1455 42.3C98.0775 42.232 98.0095 42.1583 97.9415 42.079C97.8735 41.9883 97.8281 41.909 97.8055 41.841ZM115.5 33.8V34.65C115.466 35.0693 115.409 35.4773 115.33 35.874C115.25 36.2593 115.154 36.6277 115.041 36.979C115.313 37.489 115.636 37.9933 116.01 38.492C116.395 38.9907 116.78 39.444 117.166 39.852C117.562 40.26 117.936 40.617 118.288 40.923C118.639 41.2177 118.928 41.4217 119.155 41.535L118.764 42.045C118.684 42.1243 118.616 42.1583 118.56 42.147C118.514 42.1357 118.458 42.1017 118.39 42.045C118.152 41.875 117.863 41.637 117.523 41.331C117.194 41.025 116.854 40.6907 116.503 40.328C116.151 39.9653 115.811 39.5857 115.483 39.189C115.154 38.781 114.876 38.39 114.65 38.016C114.242 38.9453 113.76 39.7613 113.205 40.464C112.661 41.1667 112.168 41.7447 111.726 42.198C111.692 42.232 111.663 42.2547 111.641 42.266C111.618 42.2773 111.595 42.2773 111.573 42.266C111.539 42.266 111.51 42.2603 111.488 42.249C111.465 42.2377 111.442 42.2207 111.42 42.198C111.363 42.1753 111.312 42.1413 111.267 42.096C111.233 42.0507 111.193 42.011 111.148 41.977C111.114 41.9317 111.08 41.892 111.046 41.858C111.023 41.8127 111.006 41.7787 110.995 41.756C111.21 41.552 111.516 41.2233 111.913 40.77C112.309 40.3167 112.7 39.767 113.086 39.121C113.471 38.4863 113.8 37.778 114.072 36.996C114.355 36.2027 114.491 35.364 114.48 34.48V33.205C114.718 33.1823 114.944 33.2163 115.16 33.307C115.386 33.3863 115.5 33.5507 115.5 33.8ZM121.96 37.88V45.7H121.093V32.1C121.297 32.1 121.489 32.1397 121.671 32.219C121.863 32.287 121.96 32.4457 121.96 32.695V37.166H124.255C124.255 37.3133 124.243 37.438 124.221 37.54C124.209 37.6307 124.187 37.6987 124.153 37.744C124.096 37.812 124.039 37.8517 123.983 37.863C123.937 37.8743 123.915 37.88 123.915 37.88H121.96ZM125.714 33.375H131.494C131.494 33.647 131.488 33.851 131.477 33.987C131.477 34.123 131.477 34.2307 131.477 34.31C131.443 34.99 131.279 35.6643 130.984 36.333C130.689 36.9903 130.338 37.625 129.93 38.237C130.202 38.6337 130.497 39.0077 130.814 39.359C131.131 39.7103 131.443 40.0333 131.749 40.328C132.055 40.6227 132.333 40.8777 132.582 41.093C132.843 41.3083 133.047 41.4727 133.194 41.586L132.769 42.045C132.724 42.113 132.673 42.147 132.616 42.147C132.571 42.1357 132.531 42.113 132.497 42.079C131.93 41.6257 131.375 41.1213 130.831 40.566C130.287 39.9993 129.811 39.4667 129.403 38.968C128.791 39.75 128.162 40.4357 127.516 41.025C126.87 41.6143 126.36 42.0393 125.986 42.3C125.941 42.3227 125.907 42.3397 125.884 42.351C125.861 42.351 125.844 42.3453 125.833 42.334C125.81 42.334 125.793 42.3283 125.782 42.317C125.771 42.3057 125.759 42.2887 125.748 42.266C125.714 42.232 125.68 42.198 125.646 42.164C125.612 42.13 125.578 42.0903 125.544 42.045C125.51 42.011 125.476 41.977 125.442 41.943C125.419 41.909 125.397 41.8693 125.374 41.824C125.646 41.6313 126.048 41.3083 126.581 40.855C127.114 40.4017 127.658 39.8577 128.213 39.223C128.757 38.5883 129.25 37.88 129.692 37.098C130.134 36.316 130.406 35.5 130.508 34.65V34.072H125.714V33.375ZM135.829 37.88V45.7H134.962V32.1C135.166 32.1 135.359 32.1397 135.54 32.219C135.733 32.287 135.829 32.4457 135.829 32.695V37.166H138.124C138.124 37.3133 138.113 37.438 138.09 37.54C138.079 37.6307 138.056 37.6987 138.022 37.744C137.965 37.812 137.909 37.8517 137.852 37.863C137.807 37.8743 137.784 37.88 137.784 37.88H135.829ZM143.341 39.546C143.737 39.342 144.191 39.1153 144.701 38.866C145.222 38.6167 145.738 38.3107 146.248 37.948C146.746 37.5967 147.217 37.1773 147.659 36.69C148.112 36.1913 148.475 35.602 148.747 34.922H143.851V34.225H146.35C146.52 33.9757 146.712 33.6527 146.928 33.256C147.143 32.8593 147.336 32.474 147.506 32.1C147.596 32.1453 147.676 32.185 147.744 32.219C147.823 32.2417 147.897 32.27 147.965 32.304C148.033 32.3267 148.101 32.3493 148.169 32.372C148.237 32.3947 148.31 32.4173 148.39 32.44C148.276 32.644 148.106 32.933 147.88 33.307C147.653 33.6697 147.426 33.9757 147.2 34.225H149.716V34.65C149.568 35.2053 149.347 35.7153 149.053 36.18C148.758 36.6333 148.407 37.0527 147.999 37.438C148.282 37.6987 148.56 37.9253 148.832 38.118C149.104 38.2993 149.37 38.4523 149.631 38.577C149.88 38.713 150.118 38.8263 150.345 38.917C150.571 39.0077 150.787 39.087 150.991 39.155C150.934 39.2457 150.889 39.3193 150.855 39.376C150.821 39.4213 150.792 39.461 150.77 39.495C150.736 39.529 150.713 39.5573 150.702 39.58C150.69 39.6027 150.679 39.6197 150.668 39.631C150.634 39.665 150.6 39.6877 150.566 39.699C150.543 39.7103 150.515 39.716 150.481 39.716C150.458 39.716 150.43 39.7103 150.396 39.699C150.373 39.6763 150.345 39.6537 150.311 39.631C149.925 39.461 149.461 39.2343 148.917 38.951C148.373 38.6677 147.874 38.339 147.421 37.965C146.933 38.3617 146.401 38.73 145.823 39.07C145.256 39.3987 144.667 39.7103 144.055 40.005C143.987 40.0503 143.913 40.073 143.834 40.073C143.766 40.073 143.715 40.0503 143.681 40.005C143.613 39.937 143.545 39.8633 143.477 39.784C143.409 39.6933 143.363 39.614 143.341 39.546ZM154.136 32.695V45.7H153.269V32.1C153.473 32.1 153.665 32.1397 153.847 32.219C154.039 32.287 154.136 32.4457 154.136 32.695ZM147.642 43.048H152.351C152.339 43.218 152.3 43.3767 152.232 43.524C152.164 43.6713 152.062 43.745 151.926 43.745H142.916V43.048H146.775V40.175C146.979 40.175 147.171 40.2147 147.353 40.294C147.545 40.362 147.642 40.5207 147.642 40.77V43.048ZM168.09 32.695V45.7H167.223V37.54H163.755V36.826H167.223V32.1C167.427 32.1 167.62 32.1397 167.801 32.219C167.994 32.287 168.09 32.4457 168.09 32.695ZM161.12 33.8V34.65C161.086 35.0693 161.029 35.4773 160.95 35.874C160.871 36.2593 160.774 36.6277 160.661 36.979C160.933 37.489 161.256 37.9933 161.63 38.492C162.015 38.9907 162.401 39.444 162.786 39.852C163.183 40.26 163.557 40.617 163.908 40.923C164.259 41.2177 164.548 41.4217 164.775 41.535L164.384 42.045C164.305 42.1243 164.237 42.1583 164.18 42.147C164.135 42.1357 164.078 42.1017 164.01 42.045C163.772 41.875 163.483 41.637 163.143 41.331C162.814 41.025 162.474 40.6907 162.123 40.328C161.772 39.9653 161.432 39.5857 161.103 39.189C160.774 38.781 160.497 38.39 160.27 38.016C159.862 38.9453 159.38 39.7613 158.825 40.464C158.281 41.1667 157.788 41.7447 157.346 42.198C157.312 42.232 157.284 42.2547 157.261 42.266C157.238 42.2773 157.216 42.2773 157.193 42.266C157.159 42.266 157.131 42.2603 157.108 42.249C157.085 42.2377 157.063 42.2207 157.04 42.198C156.983 42.1753 156.932 42.1413 156.887 42.096C156.853 42.0507 156.813 42.011 156.768 41.977C156.734 41.9317 156.7 41.892 156.666 41.858C156.643 41.8127 156.626 41.7787 156.615 41.756C156.83 41.552 157.136 41.2233 157.533 40.77C157.93 40.3167 158.321 39.767 158.706 39.121C159.091 38.4863 159.42 37.778 159.692 36.996C159.975 36.2027 160.111 35.364 160.1 34.48V33.205C160.338 33.1823 160.565 33.2163 160.78 33.307C161.007 33.3863 161.12 33.5507 161.12 33.8ZM170.654 37.71C170.654 37.1093 170.745 36.5483 170.926 36.027C171.119 35.4943 171.38 35.0297 171.708 34.633C172.048 34.2477 172.439 33.9417 172.881 33.715C173.323 33.4883 173.799 33.375 174.309 33.375C174.808 33.375 175.278 33.4883 175.72 33.715C176.162 33.9417 176.553 34.2477 176.893 34.633C177.222 35.0297 177.483 35.4943 177.675 36.027C177.868 36.5483 177.964 37.1093 177.964 37.71C177.964 38.322 177.868 38.8943 177.675 39.427C177.483 39.9483 177.222 40.4073 176.893 40.804C176.553 41.1893 176.162 41.4953 175.72 41.722C175.278 41.9373 174.808 42.045 174.309 42.045C173.799 42.045 173.323 41.9373 172.881 41.722C172.439 41.4953 172.048 41.1893 171.708 40.804C171.38 40.4073 171.119 39.9483 170.926 39.427C170.745 38.8943 170.654 38.322 170.654 37.71ZM174.309 41.348C175.103 41.348 175.766 41.0137 176.298 40.345C176.831 39.6763 177.097 38.798 177.097 37.71C177.097 36.622 176.831 35.7437 176.298 35.075C175.766 34.4063 175.103 34.072 174.309 34.072C173.505 34.072 172.836 34.4063 172.303 35.075C171.782 35.7437 171.521 36.622 171.521 37.71C171.521 38.798 171.782 39.6763 172.303 40.345C172.836 41.0137 173.505 41.348 174.309 41.348ZM181.364 37.88V45.7H180.497V32.1C180.701 32.1 180.894 32.1397 181.075 32.219C181.268 32.287 181.364 32.4457 181.364 32.695V37.166H183.659C183.659 37.3133 183.648 37.438 183.625 37.54C183.614 37.6307 183.591 37.6987 183.557 37.744C183.501 37.812 183.444 37.8517 183.387 37.863C183.342 37.8743 183.319 37.88 183.319 37.88H181.364ZM195.829 32.525V39.24H194.962V31.93C195.166 31.93 195.358 31.9697 195.54 32.049C195.732 32.117 195.829 32.2757 195.829 32.525ZM194.962 41.875V40.26H195.829V45.53H186.309V40.26H187.176V41.875H194.962ZM187.176 44.833H194.962V42.555H187.176V44.833ZM184.864 35.704C184.864 35.2847 184.949 34.888 185.119 34.514C185.289 34.14 185.521 33.8113 185.816 33.528C186.11 33.256 186.45 33.035 186.836 32.865C187.232 32.695 187.652 32.61 188.094 32.61C188.524 32.61 188.932 32.695 189.318 32.865C189.714 33.035 190.06 33.256 190.355 33.528C190.649 33.8113 190.882 34.14 191.052 34.514C191.233 34.888 191.324 35.2847 191.324 35.704C191.324 36.1347 191.233 36.537 191.052 36.911C190.882 37.285 190.649 37.6137 190.355 37.897C190.06 38.1803 189.714 38.4013 189.318 38.56C188.932 38.7187 188.524 38.798 188.094 38.798C187.652 38.798 187.232 38.7187 186.836 38.56C186.45 38.4013 186.11 38.1803 185.816 37.897C185.521 37.6137 185.289 37.285 185.119 36.911C184.949 36.537 184.864 36.1347 184.864 35.704ZM185.731 35.704C185.731 36.0213 185.793 36.3273 185.918 36.622C186.042 36.9053 186.212 37.1603 186.428 37.387C186.643 37.6023 186.892 37.778 187.176 37.914C187.47 38.0387 187.776 38.101 188.094 38.101C188.4 38.101 188.694 38.0387 188.978 37.914C189.272 37.778 189.527 37.6023 189.743 37.387C189.958 37.1603 190.128 36.9053 190.253 36.622C190.389 36.3273 190.457 36.0213 190.457 35.704C190.457 35.398 190.389 35.1033 190.253 34.82C190.128 34.5253 189.958 34.2647 189.743 34.038C189.527 33.8227 189.272 33.647 188.978 33.511C188.694 33.375 188.4 33.307 188.094 33.307C187.776 33.307 187.47 33.375 187.176 33.511C186.892 33.647 186.643 33.8227 186.428 34.038C186.212 34.2647 186.042 34.5253 185.918 34.82C185.793 35.1033 185.731 35.398 185.731 35.704ZM209.528 32.695V45.7H208.661V32.1C208.865 32.1 209.058 32.1397 209.239 32.219C209.432 32.287 209.528 32.4457 209.528 32.695ZM206.06 42.13H199.243V33.29C199.447 33.29 199.64 33.3297 199.821 33.409C200.014 33.477 200.11 33.6357 200.11 33.885V41.433H206.468C206.457 41.603 206.417 41.7617 206.349 41.909C206.292 42.0563 206.196 42.13 206.06 42.13ZM219.232 33.375V34.072H213.809V41.518H219.912C219.935 41.722 219.901 41.892 219.81 42.028C219.731 42.164 219.618 42.2263 219.47 42.215H212.942V33.375H219.232ZM222.887 37.88V45.7H222.02V32.1C222.224 32.1 222.417 32.1397 222.598 32.219C222.791 32.287 222.887 32.4457 222.887 32.695V37.166H225.182C225.182 37.3133 225.171 37.438 225.148 37.54C225.137 37.6307 225.114 37.6987 225.08 37.744C225.024 37.812 224.967 37.8517 224.91 37.863C224.865 37.8743 224.842 37.88 224.842 37.88H222.887ZM232.014 35.33V36.69H230.654V35.33H232.014ZM230.654 42.3V40.94H232.014V42.3H230.654ZM235.571 46.21H235.01C235.634 45.088 236.144 43.915 236.54 42.691C236.937 41.4557 237.135 40.192 237.135 38.9C237.135 37.6533 236.926 36.401 236.506 35.143C236.087 33.885 235.588 32.7007 235.01 31.59H235.571C236.297 32.7233 236.88 33.885 237.322 35.075C237.764 36.2537 237.985 37.5287 237.985 38.9C237.985 40.2827 237.764 41.5747 237.322 42.776C236.88 43.966 236.297 45.1107 235.571 46.21ZM18.4601 57.585C18.4601 57.177 18.5451 56.7917 18.7151 56.429C18.8851 56.0663 19.1174 55.7547 19.4121 55.494C19.6954 55.222 20.0354 55.0067 20.4321 54.848C20.8288 54.6893 21.2481 54.61 21.6901 54.61C22.1321 54.61 22.5458 54.6893 22.9311 54.848C23.3278 55.0067 23.6734 55.222 23.9681 55.494C24.2514 55.7547 24.4781 56.0663 24.6481 56.429C24.8294 56.7917 24.9201 57.177 24.9201 57.585C24.9201 58.0043 24.8294 58.3953 24.6481 58.758C24.4781 59.1207 24.2514 59.4323 23.9681 59.693C23.6734 59.965 23.3278 60.1803 22.9311 60.339C22.5458 60.4863 22.1321 60.56 21.6901 60.56C21.2481 60.56 20.8288 60.4863 20.4321 60.339C20.0354 60.1803 19.6954 59.965 19.4121 59.693C19.1174 59.4323 18.8851 59.1207 18.7151 58.758C18.5451 58.3953 18.4601 58.0043 18.4601 57.585ZM29.1871 67.615H19.9051V64.3H28.4731V62.617H19.9051V61.92H29.3401V64.98H20.7891V66.918H29.5951C29.5951 67.122 29.5668 67.2863 29.5101 67.411C29.4534 67.547 29.3458 67.615 29.1871 67.615ZM19.3271 57.585C19.3271 58.231 19.5538 58.775 20.0071 59.217C20.4604 59.6477 21.0214 59.863 21.6901 59.863C22.3474 59.863 22.9028 59.6477 23.3561 59.217C23.8208 58.775 24.0531 58.231 24.0531 57.585C24.0531 56.9503 23.8208 56.412 23.3561 55.97C22.9028 55.528 22.3474 55.307 21.6901 55.307C21.0214 55.307 20.4604 55.528 20.0071 55.97C19.5538 56.412 19.3271 56.9503 19.3271 57.585ZM29.4251 54.525V60.9H28.5581V59.115H25.4301V58.401H28.5581V56.65H25.4301V55.936H28.5581V53.93C28.7621 53.93 28.9548 53.9697 29.1361 54.049C29.3288 54.117 29.4251 54.2757 29.4251 54.525ZM43.2944 54.525V61.41H42.4274V53.93C42.6314 53.93 42.8241 53.9697 43.0054 54.049C43.1981 54.117 43.2944 54.2757 43.2944 54.525ZM33.7744 67.53V62.515H43.2944V67.53H33.7744ZM42.4274 66.833V63.212H34.6414V66.833H42.4274ZM36.3244 55.375V55.715C36.2904 55.9417 36.2394 56.157 36.1714 56.361C36.1148 56.565 36.0468 56.7633 35.9674 56.956C36.2281 57.364 36.5398 57.7493 36.9024 58.112C37.2651 58.4747 37.6278 58.8033 37.9904 59.098C38.3644 59.3813 38.7101 59.6307 39.0274 59.846C39.3561 60.05 39.6168 60.203 39.8094 60.305C39.7528 60.3957 39.7074 60.4693 39.6734 60.526C39.6394 60.5713 39.6111 60.611 39.5884 60.645C39.5544 60.679 39.5318 60.7073 39.5204 60.73C39.5091 60.7527 39.4978 60.7697 39.4864 60.781C39.4184 60.849 39.3561 60.8773 39.2994 60.866C39.2541 60.8547 39.1974 60.8263 39.1294 60.781C38.9028 60.645 38.6308 60.4693 38.3134 60.254C37.9961 60.0273 37.6731 59.7837 37.3444 59.523C37.0044 59.2623 36.6758 58.9847 36.3584 58.69C36.0411 58.3953 35.7748 58.1007 35.5594 57.806C35.1854 58.4747 34.7151 59.081 34.1484 59.625C33.5931 60.169 33.0208 60.662 32.4314 61.104C32.3861 61.1267 32.3521 61.138 32.3294 61.138C32.3068 61.138 32.2841 61.1323 32.2614 61.121C32.2388 61.121 32.2161 61.1153 32.1934 61.104C32.1821 61.0813 32.1708 61.0587 32.1594 61.036C32.1254 61.002 32.0914 60.9737 32.0574 60.951C32.0234 60.917 31.9951 60.883 31.9724 60.849C31.9384 60.815 31.9044 60.781 31.8704 60.747C31.8478 60.713 31.8308 60.679 31.8194 60.645C32.2388 60.3277 32.6468 59.999 33.0434 59.659C33.4401 59.3077 33.7971 58.9337 34.1144 58.537C34.4318 58.129 34.6924 57.6983 34.8964 57.245C35.1118 56.7917 35.2478 56.293 35.3044 55.749V54.78C35.5424 54.7573 35.7691 54.7913 35.9844 54.882C36.2111 54.9613 36.3244 55.1257 36.3244 55.375ZM48.4598 56.837H46.0288V56.14H49.4118C49.5818 55.9133 49.7801 55.613 50.0068 55.239C50.2335 54.865 50.4375 54.4853 50.6188 54.1C50.7095 54.1453 50.7945 54.1907 50.8738 54.236C50.9531 54.27 51.0268 54.304 51.0948 54.338C51.1628 54.372 51.2308 54.406 51.2988 54.44C51.3668 54.474 51.4405 54.5023 51.5198 54.525C51.3951 54.7403 51.2081 55.0123 50.9588 55.341C50.7208 55.6583 50.4828 55.9247 50.2448 56.14H53.8488C53.8488 56.276 53.8375 56.395 53.8148 56.497C53.7921 56.5877 53.7638 56.6557 53.7298 56.701C53.6958 56.7577 53.6561 56.7973 53.6108 56.82C53.5655 56.8313 53.5315 56.837 53.5088 56.837H51.4178C51.9958 57.1657 52.4605 57.653 52.8118 58.299C53.1631 58.9337 53.3388 59.625 53.3388 60.373C53.3388 60.8943 53.2538 61.393 53.0838 61.869C52.9138 62.3337 52.6815 62.7473 52.3868 63.11C52.0808 63.4727 51.7181 63.7617 51.2988 63.977C50.8908 64.1923 50.4375 64.3 49.9388 64.3C49.4288 64.3 48.9641 64.1923 48.5448 63.977C48.1368 63.7617 47.7798 63.4727 47.4738 63.11C47.1791 62.7473 46.9468 62.3337 46.7768 61.869C46.6181 61.393 46.5388 60.8943 46.5388 60.373C46.5388 59.625 46.7088 58.9337 47.0488 58.299C47.3888 57.653 47.8591 57.1657 48.4598 56.837ZM49.9388 63.603C50.2335 63.603 50.5281 63.5293 50.8228 63.382C51.1288 63.2233 51.4008 62.9967 51.6388 62.702C51.8881 62.4187 52.0865 62.0787 52.2338 61.682C52.3925 61.274 52.4718 60.8263 52.4718 60.339C52.4718 59.8517 52.3925 59.4097 52.2338 59.013C52.0865 58.6163 51.8881 58.2707 51.6388 57.976C51.4008 57.6927 51.1288 57.4717 50.8228 57.313C50.5281 57.1543 50.2335 57.075 49.9388 57.075C49.6328 57.075 49.3268 57.1543 49.0208 57.313C48.7261 57.4717 48.4598 57.6927 48.2218 57.976C47.9725 58.2707 47.7741 58.6163 47.6268 59.013C47.4795 59.4097 47.4058 59.8517 47.4058 60.339C47.4058 60.8263 47.4795 61.274 47.6268 61.682C47.7741 62.0787 47.9725 62.4187 48.2218 62.702C48.4598 62.9967 48.7261 63.2233 49.0208 63.382C49.3268 63.5293 49.6328 63.603 49.9388 63.603ZM57.1638 54.695V67.7H56.2968V54.1C56.5008 54.1 56.6935 54.1397 56.8748 54.219C57.0675 54.287 57.1638 54.4457 57.1638 54.695ZM66.0011 56.837H63.5701V56.14H66.9531C67.1231 55.9133 67.3215 55.613 67.5481 55.239C67.7748 54.865 67.9788 54.4853 68.1601 54.1C68.2508 54.1453 68.3358 54.1907 68.4151 54.236C68.4945 54.27 68.5681 54.304 68.6361 54.338C68.7041 54.372 68.7721 54.406 68.8401 54.44C68.9081 54.474 68.9818 54.5023 69.0611 54.525C68.9365 54.7403 68.7495 55.0123 68.5001 55.341C68.2621 55.6583 68.0241 55.9247 67.7861 56.14H71.3901C71.3901 56.276 71.3788 56.395 71.3561 56.497C71.3335 56.5877 71.3051 56.6557 71.2711 56.701C71.2371 56.7577 71.1975 56.7973 71.1521 56.82C71.1068 56.8313 71.0728 56.837 71.0501 56.837H68.9591C69.5371 57.1657 70.0018 57.653 70.3531 58.299C70.7045 58.9337 70.8801 59.625 70.8801 60.373C70.8801 60.8943 70.7951 61.393 70.6251 61.869C70.4551 62.3337 70.2228 62.7473 69.9281 63.11C69.6221 63.4727 69.2595 63.7617 68.8401 63.977C68.4321 64.1923 67.9788 64.3 67.4801 64.3C66.9701 64.3 66.5055 64.1923 66.0861 63.977C65.6781 63.7617 65.3211 63.4727 65.0151 63.11C64.7205 62.7473 64.4881 62.3337 64.3181 61.869C64.1595 61.393 64.0801 60.8943 64.0801 60.373C64.0801 59.625 64.2501 58.9337 64.5901 58.299C64.9301 57.653 65.4005 57.1657 66.0011 56.837ZM67.4801 63.603C67.7748 63.603 68.0695 63.5293 68.3641 63.382C68.6701 63.2233 68.9421 62.9967 69.1801 62.702C69.4295 62.4187 69.6278 62.0787 69.7751 61.682C69.9338 61.274 70.0131 60.8263 70.0131 60.339C70.0131 59.8517 69.9338 59.4097 69.7751 59.013C69.6278 58.6163 69.4295 58.2707 69.1801 57.976C68.9421 57.6927 68.6701 57.4717 68.3641 57.313C68.0695 57.1543 67.7748 57.075 67.4801 57.075C67.1741 57.075 66.8681 57.1543 66.5621 57.313C66.2675 57.4717 66.0011 57.6927 65.7631 57.976C65.5138 58.2707 65.3155 58.6163 65.1681 59.013C65.0208 59.4097 64.9471 59.8517 64.9471 60.339C64.9471 60.8263 65.0208 61.274 65.1681 61.682C65.3155 62.0787 65.5138 62.4187 65.7631 62.702C66.0011 62.9967 66.2675 63.2233 66.5621 63.382C66.8681 63.5293 67.1741 63.603 67.4801 63.603ZM74.2801 59.88V67.7H73.4131V54.1C73.6171 54.1 73.8098 54.1397 73.9911 54.219C74.1838 54.287 74.2801 54.4457 74.2801 54.695V59.166H76.5751C76.5751 59.3133 76.5638 59.438 76.5411 59.54C76.5298 59.6307 76.5071 59.6987 76.4731 59.744C76.4165 59.812 76.3598 59.8517 76.3031 59.863C76.2578 59.8743 76.2351 59.88 76.2351 59.88H74.2801ZM77.6095 60.611C78.0288 60.407 78.4651 60.169 78.9185 59.897C79.3831 59.625 79.8251 59.2963 80.2445 58.911C80.6525 58.537 81.0208 58.0893 81.3495 57.568C81.6781 57.0467 81.9275 56.4347 82.0975 55.732H77.9495V55.035H83.0495V55.46C83.0041 55.8113 82.9248 56.157 82.8115 56.497C82.6981 56.8257 82.5565 57.1487 82.3865 57.466H84.9195V54.1C85.1235 54.1 85.3161 54.1397 85.4975 54.219C85.6901 54.287 85.7865 54.4457 85.7865 54.695V61.24H84.9195V58.18H81.9275C81.5081 58.758 80.9925 59.2963 80.3805 59.795C79.7685 60.2823 79.0828 60.7073 78.3235 61.07C78.2555 61.1153 78.1818 61.138 78.1025 61.138C78.0345 61.138 77.9835 61.1153 77.9495 61.07C77.8815 61.002 77.8135 60.9283 77.7455 60.849C77.6775 60.7583 77.6321 60.679 77.6095 60.611ZM85.8545 62.175H86.8745C86.8745 62.2317 86.8688 62.2883 86.8575 62.345C86.8575 62.4017 86.8575 62.4527 86.8575 62.498C86.8235 62.7587 86.7668 63.0193 86.6875 63.28C86.6081 63.5293 86.5175 63.773 86.4155 64.011C86.5855 64.283 86.7951 64.5663 87.0445 64.861C87.2938 65.1443 87.5545 65.4107 87.8265 65.66C88.0871 65.9207 88.3421 66.153 88.5915 66.357C88.8521 66.5723 89.0731 66.7367 89.2545 66.85C89.2091 66.8953 89.1695 66.9407 89.1355 66.986C89.1128 67.0313 89.0901 67.071 89.0675 67.105C89.0448 67.139 89.0221 67.1673 88.9995 67.19C88.9881 67.224 88.9768 67.2467 88.9655 67.258C88.9315 67.292 88.8975 67.309 88.8635 67.309C88.8295 67.309 88.8068 67.3033 88.7955 67.292C88.6368 67.2127 88.4385 67.088 88.2005 66.918C87.9625 66.748 87.7131 66.5497 87.4525 66.323C87.1805 66.0963 86.9141 65.8527 86.6535 65.592C86.3928 65.3313 86.1661 65.0707 85.9735 64.81C85.5881 65.4333 85.1518 65.983 84.6645 66.459C84.1885 66.9463 83.7805 67.2807 83.4405 67.462C83.3951 67.4847 83.3555 67.4903 83.3215 67.479C83.2875 67.479 83.2591 67.462 83.2365 67.428C83.1798 67.394 83.1175 67.3373 83.0495 67.258C82.9928 67.1787 82.9531 67.1163 82.9305 67.071C83.0211 67.003 83.1175 66.9293 83.2195 66.85C83.3215 66.7707 83.4235 66.68 83.5255 66.578C83.2535 66.3967 82.9531 66.1303 82.6245 65.779C82.3071 65.4277 82.0181 65.082 81.7575 64.742C81.3721 65.3653 80.9358 65.915 80.4485 66.391C79.9611 66.867 79.5645 67.19 79.2585 67.36C79.2131 67.394 79.1621 67.411 79.1055 67.411C79.0488 67.411 79.0035 67.3883 78.9695 67.343C78.9355 67.3317 78.9071 67.309 78.8845 67.275C78.8618 67.241 78.8335 67.207 78.7995 67.173C78.7768 67.139 78.7541 67.105 78.7315 67.071C78.7088 67.037 78.6918 67.0087 78.6805 66.986C78.9525 66.7933 79.2585 66.527 79.5985 66.187C79.9385 65.8583 80.2558 65.49 80.5505 65.082C80.8451 64.674 81.0945 64.249 81.2985 63.807C81.5025 63.3537 81.6045 62.9117 81.6045 62.481V62.175H82.6245C82.6245 62.2317 82.6188 62.294 82.6075 62.362C82.6075 62.4187 82.6075 62.4697 82.6075 62.515C82.5735 62.7643 82.5168 63.008 82.4375 63.246C82.3695 63.484 82.2845 63.722 82.1825 63.96C82.4205 64.3453 82.7095 64.742 83.0495 65.15C83.3895 65.558 83.7011 65.881 83.9845 66.119C84.4491 65.643 84.8741 65.082 85.2595 64.436C85.6561 63.7787 85.8545 63.127 85.8545 62.481V62.175ZM88.7445 54.525V61.58H87.8775V53.93C88.0815 53.93 88.2741 53.9697 88.4555 54.049C88.6481 54.117 88.7445 54.2757 88.7445 54.525ZM101.322 64.13V62.685H102.189V67.53H92.6688V62.685H93.5358V64.13H101.322ZM93.5358 66.833H101.322V64.81H93.5358V66.833ZM92.7538 59.251C92.7198 59.2623 92.6858 59.2737 92.6518 59.285C92.6292 59.285 92.6065 59.285 92.5838 59.285C92.5272 59.285 92.4818 59.2737 92.4478 59.251C92.4252 59.2283 92.3968 59.183 92.3628 59.115L92.1588 58.775C92.5102 58.6277 92.9465 58.4463 93.4678 58.231C93.9892 58.0043 94.4992 57.7323 94.9978 57.415C95.4965 57.0977 95.9328 56.735 96.3068 56.327C96.6808 55.919 96.9075 55.46 96.9868 54.95C96.9868 54.916 96.9868 54.8763 96.9868 54.831C96.9982 54.7857 97.0038 54.7403 97.0038 54.695V54.44C97.2418 54.4173 97.4685 54.4513 97.6838 54.542C97.9105 54.6213 98.0238 54.7857 98.0238 55.035C97.9898 55.171 97.9502 55.307 97.9048 55.443C97.8595 55.579 97.8028 55.7093 97.7348 55.834C98.0408 56.174 98.4092 56.4857 98.8398 56.769C99.2818 57.0523 99.7295 57.3073 100.183 57.534C100.636 57.772 101.072 57.976 101.492 58.146C101.911 58.3047 102.257 58.4293 102.529 58.52C102.506 58.5653 102.483 58.605 102.461 58.639C102.449 58.673 102.438 58.707 102.427 58.741C102.404 58.775 102.381 58.809 102.359 58.843C102.347 58.8657 102.336 58.8883 102.325 58.911C102.302 58.9337 102.285 58.9563 102.274 58.979C102.262 59.0017 102.245 59.0187 102.223 59.03C102.211 59.0413 102.194 59.0527 102.172 59.064C102.16 59.064 102.143 59.064 102.121 59.064C102.087 59.064 102.041 59.064 101.985 59.064C101.939 59.0527 101.866 59.03 101.764 58.996C101.526 58.928 101.22 58.8203 100.846 58.673C100.483 58.5257 100.092 58.3443 99.6728 58.129C99.2535 57.9137 98.8342 57.67 98.4148 57.398C97.9955 57.126 97.6158 56.8257 97.2758 56.497C96.9812 56.837 96.6412 57.1543 96.2558 57.449C95.8705 57.7323 95.4682 57.993 95.0488 58.231C94.6295 58.469 94.2158 58.673 93.8078 58.843C93.4112 59.013 93.0598 59.149 92.7538 59.251ZM91.1388 60.713H103.719C103.707 60.883 103.668 61.0417 103.6 61.189C103.532 61.3363 103.43 61.41 103.294 61.41H91.1388V60.713ZM116.313 54.695V67.7H115.446V54.1C115.65 54.1 115.843 54.1397 116.024 54.219C116.217 54.287 116.313 54.4457 116.313 54.695ZM112.845 64.13H106.028V55.29C106.232 55.29 106.425 55.3297 106.606 55.409C106.799 55.477 106.895 55.6357 106.895 55.885V63.433H113.253C113.242 63.603 113.202 63.7617 113.134 63.909C113.077 64.0563 112.981 64.13 112.845 64.13ZM126.018 55.375V56.072H120.595V63.518H126.698C126.72 63.722 126.686 63.892 126.596 64.028C126.516 64.164 126.403 64.2263 126.256 64.215H119.728V55.375H126.018ZM129.673 59.88V67.7H128.806V54.1C129.01 54.1 129.202 54.1397 129.384 54.219C129.576 54.287 129.673 54.4457 129.673 54.695V59.166H131.968C131.968 59.3133 131.956 59.438 131.934 59.54C131.922 59.6307 131.9 59.6987 131.866 59.744C131.809 59.812 131.752 59.8517 131.696 59.863C131.65 59.8743 131.628 59.88 131.628 59.88H129.673ZM139.921 55.035L138.68 63.45H138.051L138.867 55.035H139.921ZM137.49 66.68L137.66 65.405H138.663C138.64 65.5183 138.623 65.6317 138.612 65.745C138.601 65.847 138.589 65.949 138.578 66.051C138.567 66.153 138.555 66.255 138.544 66.357C138.533 66.4703 138.521 66.578 138.51 66.68H137.49ZM145.456 55.035L144.215 63.45H143.586L144.402 55.035H145.456ZM143.025 66.68L143.195 65.405H144.198C144.176 65.5183 144.159 65.6317 144.147 65.745C144.136 65.847 144.125 65.949 144.113 66.051C144.102 66.153 144.091 66.255 144.079 66.357C144.068 66.4703 144.057 66.578 144.045 66.68H143.025Z" fill="black"/>
</svg>
