<svg width="1210" height="44" viewBox="0 0 1210 44" fill="none" xmlns="http://www.w3.org/2000/svg">
<g clip-path="url(#clip0_23_872)">
<mask id="path-1-inside-1_23_872" fill="white">
<path d="M0 0H1210V44H0V0Z"/>
</mask>
<rect width="1210" height="44" fill="white" fill-opacity="0.75" style="mix-blend-mode:hard-light"/>
</g>
<path d="M1210 43.6667H0V44.3333H1210V43.6667Z" fill="black" fill-opacity="0.3" mask="url(#path-1-inside-1_23_872)"/>
<path d="M584.302 16.919C584.324 16.851 584.353 16.783 584.387 16.715C584.421 16.647 584.46 16.579 584.506 16.511C584.676 16.1937 584.88 15.9953 585.118 15.916C585.367 15.8253 585.645 15.78 585.951 15.78H587.447V28.02H585.832V17.905L585.849 17.14C585.735 17.3553 585.65 17.5253 585.594 17.65C585.537 17.7633 585.492 17.8653 585.458 17.956C585.152 18.772 584.863 19.5313 584.591 20.234C584.319 20.9367 584.047 21.6223 583.775 22.291C583.503 22.9483 583.225 23.6057 582.942 24.263C582.67 24.9203 582.375 25.606 582.058 26.32H580.426C580.12 25.5607 579.825 24.8523 579.542 24.195C579.27 23.5263 578.998 22.869 578.726 22.223C578.442 21.5657 578.159 20.897 577.876 20.217C577.604 19.5257 577.32 18.772 577.026 17.956L576.635 17.14L576.652 17.973V28.02H575.037V15.78H576.601C576.907 15.78 577.179 15.8253 577.417 15.916C577.655 15.9953 577.864 16.1937 578.046 16.511C578.057 16.545 578.085 16.6187 578.131 16.732C578.176 16.834 578.295 17.123 578.488 17.599C578.68 18.0637 578.969 18.789 579.355 19.775C579.751 20.761 580.312 22.1493 581.038 23.94C581.06 24.008 581.083 24.076 581.106 24.144C581.128 24.212 581.151 24.28 581.174 24.348C581.185 24.416 581.196 24.484 581.208 24.552C581.23 24.6087 581.253 24.6597 581.276 24.705C581.31 24.5803 581.349 24.45 581.395 24.314C581.44 24.1667 581.485 24.042 581.531 23.94C581.825 23.192 582.109 22.478 582.381 21.798C582.653 21.1067 582.902 20.4663 583.129 19.877C583.367 19.2763 583.582 18.7267 583.775 18.228C583.967 17.7293 584.143 17.293 584.302 16.919ZM591.625 27.34C591.625 27.238 591.591 27.0793 591.523 26.864C591.455 26.6487 591.387 26.4673 591.319 26.32L588.038 19.35H588.803C589.052 19.35 589.279 19.3897 589.483 19.469C589.687 19.5483 589.857 19.7353 589.993 20.03L592.458 25.572L594.753 20.268C594.889 19.9507 595.065 19.7183 595.28 19.571C595.507 19.4237 595.773 19.35 596.079 19.35H596.708L593.189 27.17C593.019 27.544 592.832 27.918 592.628 28.292C592.435 28.6773 592.209 29.0287 591.948 29.346C591.699 29.6633 591.404 29.924 591.064 30.128C590.735 30.332 590.35 30.451 589.908 30.485C589.761 30.485 589.619 30.4737 589.483 30.451C589.358 30.4397 589.245 30.4227 589.143 30.4C588.984 30.3547 588.882 30.281 588.837 30.179C588.792 30.077 588.78 29.9523 588.803 29.805L588.888 29.04C588.911 29.0627 588.933 29.0797 588.956 29.091C588.979 29.1023 589.007 29.1193 589.041 29.142C589.086 29.1533 589.149 29.1647 589.228 29.176C589.307 29.1873 589.421 29.193 589.568 29.193C589.942 29.193 590.259 29.1023 590.52 28.921C590.781 28.751 590.99 28.5583 591.149 28.343C591.308 28.1163 591.427 27.901 591.506 27.697C591.585 27.5043 591.625 27.3853 591.625 27.34ZM601.204 30.57V19.35C601.544 19.316 601.872 19.3387 602.19 19.418C602.518 19.486 602.683 19.69 602.683 20.03L602.649 20.676C602.898 20.3133 603.295 19.9733 603.839 19.656C604.383 19.3387 605.023 19.18 605.76 19.18C606.406 19.18 606.972 19.299 607.46 19.537C607.958 19.775 608.372 20.0923 608.701 20.489C609.029 20.8857 609.279 21.3447 609.449 21.866C609.619 22.3873 609.704 22.937 609.704 23.515C609.704 24.1157 609.613 24.671 609.432 25.181C609.25 25.6797 608.99 26.116 608.65 26.49C608.31 26.864 607.896 27.153 607.409 27.357C606.921 27.5723 606.372 27.68 605.76 27.68C605.057 27.68 604.439 27.5327 603.907 27.238C603.374 26.9547 602.983 26.609 602.734 26.201V30.57H601.204ZM608.174 23.43C608.174 23.09 608.111 22.7443 607.987 22.393C607.862 22.0417 607.686 21.7187 607.46 21.424C607.233 21.1407 606.95 20.9083 606.61 20.727C606.27 20.5343 605.884 20.438 605.454 20.438C604.978 20.438 604.564 20.5287 604.213 20.71C603.873 20.88 603.595 21.1067 603.38 21.39C603.153 21.6733 602.989 21.9963 602.887 22.359C602.785 22.7103 602.734 23.0673 602.734 23.43C602.734 23.838 602.79 24.2233 602.904 24.586C603.017 24.9487 603.187 25.266 603.414 25.538C603.64 25.81 603.924 26.0253 604.264 26.184C604.604 26.3427 605 26.422 605.454 26.422C605.896 26.422 606.287 26.3427 606.627 26.184C606.967 26.0253 607.25 25.8043 607.477 25.521C607.703 25.249 607.873 24.9317 607.987 24.569C608.111 24.2063 608.174 23.8267 608.174 23.43ZM616.425 24.688V23.804C616.255 23.804 616.005 23.7983 615.677 23.787C615.348 23.7757 615.031 23.77 614.725 23.77C614.419 23.77 614.062 23.787 613.654 23.821C613.257 23.855 612.877 23.9287 612.515 24.042C612.152 24.1553 611.846 24.3253 611.597 24.552C611.359 24.7787 611.24 25.0847 611.24 25.47C611.24 25.6967 611.302 25.9007 611.427 26.082C611.563 26.2633 611.738 26.4163 611.954 26.541C612.158 26.677 612.396 26.779 612.668 26.847C612.951 26.9037 613.24 26.932 613.535 26.932C613.92 26.932 614.288 26.881 614.64 26.779C614.991 26.6657 615.297 26.507 615.558 26.303C615.83 26.099 616.039 25.861 616.187 25.589C616.345 25.317 616.425 25.0167 616.425 24.688ZM613.45 20.438C612.894 20.4493 612.379 20.5513 611.903 20.744C611.427 20.9367 610.979 21.1803 610.56 21.475L610.475 20.625C610.441 20.4777 610.446 20.3417 610.492 20.217C610.537 20.081 610.645 19.979 610.815 19.911C611.302 19.6957 611.778 19.52 612.243 19.384C612.719 19.248 613.206 19.18 613.705 19.18C615.065 19.18 616.113 19.4747 616.85 20.064C617.586 20.6533 617.955 21.543 617.955 22.733V26.66C617.955 26.9093 617.955 27.1077 617.955 27.255C617.966 27.4023 617.983 27.5213 618.006 27.612C618.017 27.7027 618.034 27.7763 618.057 27.833C618.079 27.901 618.102 27.9633 618.125 28.02C617.955 28.0427 617.773 28.054 617.581 28.054C617.399 28.0653 617.235 28.054 617.088 28.02C616.929 27.986 616.799 27.9237 616.697 27.833C616.606 27.7423 616.561 27.6063 616.561 27.425V26.745C616.447 26.9037 616.277 27.068 616.051 27.238C615.835 27.408 615.58 27.561 615.286 27.697C615.002 27.8443 614.691 27.9633 614.351 28.054C614.022 28.1447 613.693 28.19 613.365 28.19C612.243 28.19 611.353 27.9633 610.696 27.51C610.038 27.0567 609.71 26.3767 609.71 25.47C609.71 24.9373 609.829 24.4897 610.067 24.127C610.316 23.753 610.645 23.4583 611.053 23.243C611.461 23.0163 611.925 22.8577 612.447 22.767C612.968 22.665 613.501 22.614 614.045 22.614L616.425 22.648C616.402 21.9227 616.136 21.373 615.626 20.999C615.116 20.6137 614.39 20.4267 613.45 20.438ZM620.241 23.26C620.241 24.0533 620.474 24.7163 620.938 25.249C621.403 25.7817 622.077 26.048 622.961 26.048C623.834 26.048 624.503 25.7873 624.967 25.266C625.443 24.7447 625.681 24.076 625.681 23.26C625.681 22.8973 625.625 22.546 625.511 22.206C625.398 21.866 625.228 21.5657 625.001 21.305C624.775 21.0443 624.491 20.8347 624.151 20.676C623.811 20.5173 623.415 20.438 622.961 20.438C622.519 20.438 622.128 20.523 621.788 20.693C621.448 20.863 621.165 21.0783 620.938 21.339C620.712 21.611 620.536 21.917 620.411 22.257C620.298 22.5857 620.241 22.92 620.241 23.26ZM622.876 29.312C623.738 29.312 624.418 29.0457 624.916 28.513C625.426 27.9917 625.681 27.2607 625.681 26.32L625.664 25.878C625.37 26.286 624.967 26.626 624.457 26.898C623.947 27.17 623.347 27.306 622.655 27.306C621.409 27.306 620.44 26.9433 619.748 26.218C619.057 25.4927 618.711 24.535 618.711 23.345C618.711 22.767 618.791 22.2287 618.949 21.73C619.119 21.22 619.369 20.778 619.697 20.404C620.026 20.03 620.434 19.7353 620.921 19.52C621.42 19.2933 621.998 19.18 622.655 19.18C623.381 19.18 624.01 19.3443 624.542 19.673C625.086 20.0017 625.489 20.336 625.749 20.676L625.732 20.03C625.732 19.69 625.891 19.486 626.208 19.418C626.537 19.3387 626.871 19.316 627.211 19.35V26.49C627.211 27.816 626.843 28.8247 626.106 29.516C625.37 30.2187 624.236 30.57 622.706 30.57C622.162 30.57 621.641 30.5247 621.142 30.434C620.644 30.3547 620.173 30.2187 619.731 30.026C619.629 29.958 619.561 29.873 619.527 29.771C619.493 29.6803 619.493 29.5613 619.527 29.414L619.646 28.564C620.19 28.802 620.723 28.9833 621.244 29.108C621.766 29.244 622.31 29.312 622.876 29.312ZM629.543 22.92H634.898C634.886 22.6027 634.818 22.2967 634.694 22.002C634.569 21.7073 634.393 21.441 634.167 21.203C633.951 20.9763 633.685 20.795 633.368 20.659C633.05 20.5117 632.699 20.438 632.314 20.438C631.883 20.438 631.498 20.5173 631.158 20.676C630.829 20.8233 630.551 21.016 630.325 21.254C630.098 21.492 629.917 21.7583 629.781 22.053C629.656 22.3477 629.577 22.6367 629.543 22.92ZM635.544 26.184L635.663 26.966C635.674 27.1133 635.674 27.238 635.663 27.34C635.651 27.4533 635.595 27.544 635.493 27.612C635.062 27.884 634.609 28.0483 634.133 28.105C633.657 28.1617 633.192 28.19 632.739 28.19C631.175 28.19 629.99 27.7763 629.186 26.949C628.381 26.1217 627.979 25.0053 627.979 23.6C627.979 22.9653 628.081 22.376 628.285 21.832C628.489 21.288 628.783 20.8233 629.169 20.438C629.543 20.0413 629.996 19.7353 630.529 19.52C631.061 19.2933 631.656 19.18 632.314 19.18C633.062 19.18 633.696 19.3103 634.218 19.571C634.75 19.8203 635.181 20.166 635.51 20.608C635.85 21.05 636.093 21.5713 636.241 22.172C636.399 22.7727 636.479 23.4187 636.479 24.11H629.543C629.554 24.96 629.849 25.6457 630.427 26.167C631.016 26.677 631.787 26.932 632.739 26.932C633.249 26.932 633.736 26.864 634.201 26.728C634.677 26.592 635.124 26.4107 635.544 26.184Z" fill="black"/>
<defs>
<clipPath id="clip0_23_872">
<path d="M0 0H1210V44H0V0Z" fill="white"/>
</clipPath>
</defs>
</svg>
