<svg width="398" height="112" viewBox="0 0 398 112" fill="none" xmlns="http://www.w3.org/2000/svg">
<g filter="url(#filter0_d_23_1220)">
<g clip-path="url(#clip0_23_1220)">
<g clip-path="url(#clip1_23_1220)">
<rect width="336" height="40" transform="translate(31 28)" fill="#999999" fill-opacity="0.97"/>
<rect width="336" height="40" transform="translate(31 28)" fill="#5C5C5C" style="mix-blend-mode:color-dodge"/>
</g>
</g>
<mask id="mask0_23_1220" style="mask-type:alpha" maskUnits="userSpaceOnUse" x="184" y="68" width="29" height="8">
<path fill-rule="evenodd" clip-rule="evenodd" d="M184 68.0012C185.057 68.0012 186.113 67.996 187.17 68.0074C188.181 68.0184 189.313 68.0341 190.297 68.4043C191.36 68.8044 192.064 69.5038 192.772 70.327C193.282 70.9191 194.283 72.1823 194.771 72.7922C195.17 73.2923 195.951 74.2807 196.378 74.7589C196.915 75.3605 197.578 76 198.5 76C199.422 76 200.086 75.3605 200.622 74.7595C201.049 74.2816 201.83 73.2926 202.229 72.7928C202.716 72.1829 203.718 70.9197 204.228 70.3276C204.937 69.5045 205.64 68.805 206.703 68.4049C207.687 68.0357 208.819 68.019 209.83 68.008C210.887 67.9966 211.943 68.0018 213 68.0018" fill="#FF0000"/>
</mask>
<g mask="url(#mask0_23_1220)">
<g clip-path="url(#clip2_23_1220)">
<rect width="29" height="8" transform="matrix(1 0 0 -1 184.5 76)" fill="#999999" fill-opacity="0.97"/>
<rect width="29" height="8" transform="matrix(1 0 0 -1 184.5 76)" fill="#5C5C5C" style="mix-blend-mode:color-dodge"/>
</g>
</g>
</g>
<defs>
<filter id="filter0_d_23_1220" x="0" y="0" width="398" height="112" filterUnits="userSpaceOnUse" color-interpolation-filters="sRGB">
<feFlood flood-opacity="0" result="BackgroundImageFix"/>
<feColorMatrix in="SourceAlpha" type="matrix" values="0 0 0 0 0 0 0 0 0 0 0 0 0 0 0 0 0 0 127 0" result="hardAlpha"/>
<feOffset dy="3"/>
<feGaussianBlur stdDeviation="15.5"/>
<feComposite in2="hardAlpha" operator="out"/>
<feColorMatrix type="matrix" values="0 0 0 0 0 0 0 0 0 0 0 0 0 0 0 0 0 0 0.25 0"/>
<feBlend mode="normal" in2="BackgroundImageFix" result="effect1_dropShadow_23_1220"/>
<feBlend mode="normal" in="SourceGraphic" in2="effect1_dropShadow_23_1220" result="shape"/>
</filter>
<clipPath id="clip0_23_1220">
<rect x="31" y="28" width="336" height="40" rx="8" fill="white"/>
</clipPath>
<clipPath id="clip1_23_1220">
<rect width="336" height="40" fill="white" transform="translate(31 28)"/>
</clipPath>
<clipPath id="clip2_23_1220">
<rect width="29" height="8" fill="white" transform="matrix(1 0 0 -1 184.5 76)"/>
</clipPath>
</defs>
</svg>
