<svg width="38" height="39" viewBox="0 0 38 39" fill="none" xmlns="http://www.w3.org/2000/svg">
<circle cx="18.9605" cy="19.4192" r="18.8082" fill="#97AFE3"/>
<circle cx="18.9605" cy="19.4192" r="18.8082" fill="#97AFE3"/>
<path fill-rule="evenodd" clip-rule="evenodd" d="M22.9327 10.4821C24.2496 10.4821 25.5125 11.0052 26.4436 11.9363C27.3748 12.8674 27.8979 14.1303 27.8979 15.4472V23.3914C27.8979 24.7082 27.3748 25.9711 26.4436 26.9022C25.5125 27.8334 24.2496 28.3565 22.9327 28.3565H14.9886C13.6717 28.3565 12.4088 27.8334 11.4777 26.9022C10.5465 25.9711 10.0234 24.7082 10.0234 23.3914V15.4472C10.0234 14.1303 10.5465 12.8674 11.4777 11.9363C12.4088 11.0052 13.6717 10.4821 14.9886 10.4821H22.9327ZM22.9327 12.4681H14.9886C14.1985 12.4681 13.4407 12.782 12.882 13.3407C12.3234 13.8993 12.0095 14.6571 12.0095 15.4472V23.3914C12.0095 24.1815 12.3234 24.9392 12.882 25.4979C13.4407 26.0566 14.1985 26.3704 14.9886 26.3704H22.9327C23.7228 26.3704 24.4806 26.0566 25.0393 25.4979C25.598 24.9392 25.9118 24.1815 25.9118 23.3914V15.4472C25.9118 14.6571 25.598 13.8993 25.0393 13.3407C24.4806 12.782 23.7228 12.4681 22.9327 12.4681ZM18.9607 15.4472C20.0141 15.4472 21.0244 15.8657 21.7693 16.6106C22.5143 17.3555 22.9327 18.3658 22.9327 19.4193C22.9327 20.4727 22.5143 21.4831 21.7693 22.228C21.0244 22.9729 20.0141 23.3914 18.9607 23.3914C17.9072 23.3914 16.8969 22.9729 16.152 22.228C15.407 21.4831 14.9886 20.4727 14.9886 19.4193C14.9886 18.3658 15.407 17.3555 16.152 16.6106C16.8969 15.8657 17.9072 15.4472 18.9607 15.4472ZM18.9607 17.4332C18.4339 17.4332 17.9288 17.6425 17.5563 18.0149C17.1838 18.3874 16.9746 18.8925 16.9746 19.4193C16.9746 19.946 17.1838 20.4512 17.5563 20.8236C17.9288 21.1961 18.4339 21.4053 18.9607 21.4053C19.4874 21.4053 19.9925 21.1961 20.365 20.8236C20.7375 20.4512 20.9467 19.946 20.9467 19.4193C20.9467 18.8925 20.7375 18.3874 20.365 18.0149C19.9925 17.6425 19.4874 17.4332 18.9607 17.4332ZM23.4293 13.9576C23.6926 13.9576 23.9452 14.0623 24.1314 14.2485C24.3177 14.4347 24.4223 14.6873 24.4223 14.9507C24.4223 15.214 24.3177 15.4666 24.1314 15.6528C23.9452 15.8391 23.6926 15.9437 23.4293 15.9437C23.1659 15.9437 22.9133 15.8391 22.7271 15.6528C22.5409 15.4666 22.4362 15.214 22.4362 14.9507C22.4362 14.6873 22.5409 14.4347 22.7271 14.2485C22.9133 14.0623 23.1659 13.9576 23.4293 13.9576Z" fill="white"/>
</svg>
