<svg width="19" height="19" viewBox="0 0 19 19" fill="none" xmlns="http://www.w3.org/2000/svg">
<path d="M9.42171 0.74884C8.25144 0.74884 7.09263 0.979342 6.01144 1.42718C4.93025 1.87503 3.94786 2.53144 3.12036 3.35894C1.44914 5.03017 0.510254 7.29683 0.510254 9.66029C0.510254 13.5992 3.06784 16.9409 6.60569 18.1262C7.05126 18.1975 7.19384 17.9212 7.19384 17.6806V16.1746C4.72537 16.7092 4.19959 14.9804 4.19959 14.9804C3.78967 13.9467 3.21042 13.6704 3.21042 13.6704C2.39948 13.1179 3.2728 13.1358 3.2728 13.1358C4.16395 13.1981 4.63626 14.0536 4.63626 14.0536C5.41155 15.4082 6.72154 15.0072 7.22949 14.7933C7.30969 14.214 7.54139 13.8219 7.79091 13.5992C5.81257 13.3764 3.7362 12.61 3.7362 9.21472C3.7362 8.22555 4.07483 7.43243 4.65408 6.79972C4.56496 6.57693 4.25306 5.65014 4.74319 4.44709C4.74319 4.44709 5.49176 4.20648 7.19384 5.35606C7.89785 5.16001 8.66423 5.06198 9.42171 5.06198C10.1792 5.06198 10.9456 5.16001 11.6496 5.35606C13.3517 4.20648 14.1002 4.44709 14.1002 4.44709C14.5903 5.65014 14.2784 6.57693 14.1893 6.79972C14.7686 7.43243 15.1072 8.22555 15.1072 9.21472C15.1072 12.6189 13.0219 13.3675 11.0347 13.5902C11.3555 13.8665 11.6496 14.4101 11.6496 15.2389V17.6806C11.6496 17.9212 11.7922 18.2064 12.2466 18.1262C15.7845 16.932 18.3332 13.5992 18.3332 9.66029C18.3332 8.49002 18.1027 7.33121 17.6548 6.25003C17.207 5.16884 16.5506 4.18645 15.7231 3.35894C14.8955 2.53144 13.9132 1.87503 12.832 1.42718C11.7508 0.979342 10.592 0.74884 9.42171 0.74884Z" fill="white"/>
</svg>
